# extracted from data tables in BSD banner.c by Mary Ann Horton
# see https://github.com/freebsd/freebsd-src/blob/main/usr.bin/banner/banner.c

name: BSD Banner
spacing: proportional
bounding-box: 62 123
converter: monobit v0.21
tracking: 1


# SPACE
0x20:
u+0020:
    ...................................
    ...................................
    ...................................
    ...................................
    ...................................
    ...................................
    ...................................
    ...................................
    ...................................
    ...................................
    ...................................
    ...................................
    ...................................
    ...................................
    ...................................
    ...................................
    ...................................
    ...................................
    ...................................
    ...................................
    ...................................
    ...................................
    ...................................
    ...................................
    ...................................
    ...................................
    ...................................
    ...................................
    ...................................
    ...................................
    ...................................
    ...................................
    ...................................
    ...................................
    ...................................
    ...................................
    ...................................
    ...................................
    ...................................
    ...................................
    ...................................
    ...................................
    ...................................
    ...................................
    ...................................
    ...................................
    ...................................
    ...................................
    ...................................
    ...................................
    ...................................
    ...................................
    ...................................
    ...................................
    ...................................
    ...................................
    ...................................
    ...................................
    ...................................
    ...................................
    ...................................
    ...................................
    ...................................
    ...................................
    ...................................
    ...................................
    ...................................
    ...................................
    ...................................
    ...................................
    ...................................
    ...................................
    ...................................
    ...................................
    ...................................
    ...................................
    ...................................
    ...................................
    ...................................
    ...................................
    ...................................
    ...................................
    ...................................
    ...................................
    ...................................
    ...................................
    ...................................
    ...................................
    ...................................
    ...................................
    ...................................
    ...................................
    ...................................
    ...................................
    ...................................
    ...................................
    ...................................
    ...................................
    ...................................
    ...................................
    ...................................
    ...................................
    ...................................
    ...................................
    ...................................
    ...................................
    ...................................
    ...................................
    ...................................
    ...................................
    ...................................
    ...................................
    ...................................
    ...................................
    ...................................
    ...................................
    ...................................
    ...................................
    ...................................
    ...................................
    ...................................
    ...................................
    ...................................
    ...................................
    ...................................
    ...................................
    ...................................
    ...................................



# EXCLAMATION MARK
0x21:
u+0021:
    ...........
    ...........
    ...........
    ...........
    ...........
    ...........
    ...........
    ...........
    ....@......
    ...@@@.....
    ...@@@.....
    ..@@@@@....
    ..@@@@@....
    ..@@@@@....
    .@@@@@@@...
    .@@@@@@@...
    .@@@@@@@...
    .@@@@@@@...
    .@@@@@@@...
    @@@@@@@@@..
    @@@@@@@@@..
    @@@@@@@@@..
    @@@@@@@@@..
    @@@@@@@@@..
    @@@@@@@@@..
    @@@@@@@@@..
    @@@@@@@@@..
    @@@@@@@@@..
    @@@@@@@@@..
    @@@@@@@@@..
    @@@@@@@@@..
    @@@@@@@@@..
    @@@@@@@@@..
    @@@@@@@@@..
    @@@@@@@@@..
    @@@@@@@@@..
    @@@@@@@@@..
    @@@@@@@@@..
    .@@@@@@@...
    .@@@@@@@...
    .@@@@@@@...
    .@@@@@@@...
    .@@@@@@@...
    .@@@@@@@...
    .@@@@@@@...
    .@@@@@@@...
    .@@@@@@@...
    .@@@@@@@...
    .@@@@@@@...
    .@@@@@@@...
    .@@@@@@@...
    .@@@@@@@...
    .@@@@@@@...
    .@@@@@@@...
    ..@@@@@....
    ..@@@@@....
    ..@@@@@....
    ..@@@@@....
    ..@@@@@....
    ..@@@@@....
    ..@@@@@....
    ..@@@@@....
    ..@@@@@....
    ..@@@@@....
    ...@@@.....
    ...@@@.....
    ...@@@.....
    ...@@@.....
    ...@@@.....
    ...@@@.....
    ...@@@.....
    ...@@@.....
    ...@@@.....
    ...@@@.....
    ....@......
    ...........
    ...........
    ...........
    ...........
    ...........
    ...........
    ...........
    ...........
    ...........
    ...@@@.....
    ..@@@@@....
    .@@@@@@@...
    .@@@@@@@...
    @@@@@@@@@..
    @@@@@@@@@..
    @@@@@@@@@..
    @@@@@@@@@..
    @@@@@@@@@..
    @@@@@@@@@..
    .@@@@@@@...
    .@@@@@@@...
    ..@@@@@....
    ...@@@.....
    ...........
    ...........
    ...........
    ...........
    ...........
    ...........
    ...........
    ...........
    ...........
    ...........
    ...........
    ...........
    ...........
    ...........
    ...........
    ...........
    ...........
    ...........
    ...........
    ...........
    ...........
    ...........
    ...........
    ...........
    ...........
    ...........
    ...........
    ...........
    ...........
    ...........



# QUOTATION MARK
0x22:
u+0022:
    ...........
    ...........
    ...........
    ...........
    ...........
    ...........
    ...........
    ...........
    ...........
    ....@......
    ....@......
    ...@.......
    ...@.......
    ...@.......
    ..@@.......
    ..@@.......
    ..@@.......
    .@@@@......
    .@@@@......
    .@@@@@.....
    @@@@@@.....
    @@@@@@@....
    @@@@@@@@...
    @@@@@@@@@..
    @@@@@@@@@..
    @@@@@@@@@..
    @@@@@@@@@..
    @@@@@@@@@..
    @@@@@@@@@..
    .@@@@@@@...
    .@@@@@@@...
    ..@@@@@....
    ...@@@.....
    ...........
    ...........
    ...........
    ...........
    ...........
    ...........
    ...........
    ...........
    ...........
    ...........
    ...........
    ...........
    ...........
    ...........
    ...........
    ...........
    ...........
    ...........
    ...........
    ...........
    ...........
    ...........
    ...........
    ...........
    ...........
    ...........
    ...........
    ...........
    ...........
    ...........
    ...........
    ...........
    ...........
    ...........
    ...........
    ...........
    ...........
    ...........
    ...........
    ...........
    ...........
    ...........
    ...........
    ...........
    ...........
    ...........
    ...........
    ...........
    ...........
    ...........
    ...........
    ...........
    ...........
    ...........
    ...........
    ...........
    ...........
    ...........
    ...........
    ...........
    ...........
    ...........
    ...........
    ...........
    ...........
    ...........
    ...........
    ...........
    ...........
    ...........
    ...........
    ...........
    ...........
    ...........
    ...........
    ...........
    ...........
    ...........
    ...........
    ...........
    ...........
    ...........
    ...........
    ...........
    ...........
    ...........
    ...........
    ...........
    ...........
    ...........
    ...........
    ...........
    ...........
    ...........
    ...........



# NUMBER SIGN
0x23:
u+0023:
    ..................
    ..................
    ..................
    ..................
    ..................
    ..................
    ..................
    ..................
    ..................
    ..................
    ..................
    ..................
    ..................
    ..................
    ..................
    ..................
    ..................
    ..................
    ...@@@.....@@@....
    ...@@@.....@@@....
    ...@@@.....@@@....
    ...@@@.....@@@....
    ...@@@.....@@@....
    @@@@@@@@@@@@@@@@@.
    @@@@@@@@@@@@@@@@@.
    @@@@@@@@@@@@@@@@@.
    @@@@@@@@@@@@@@@@@.
    ...@@@.....@@@....
    ...@@@.....@@@....
    ...@@@.....@@@....
    ...@@@.....@@@....
    ...@@@.....@@@....
    ...@@@.....@@@....
    ...@@@.....@@@....
    ...@@@.....@@@....
    ...@@@.....@@@....
    ...@@@.....@@@....
    @@@@@@@@@@@@@@@@@.
    @@@@@@@@@@@@@@@@@.
    @@@@@@@@@@@@@@@@@.
    @@@@@@@@@@@@@@@@@.
    ...@@@.....@@@....
    ...@@@.....@@@....
    ...@@@.....@@@....
    ...@@@.....@@@....
    ...@@@.....@@@....
    ..................
    ..................
    ..................
    ..................
    ..................
    ..................
    ..................
    ..................
    ..................
    ..................
    ..................
    ..................
    ..................
    ..................
    ..................
    ..................
    ..................
    ..................
    ..................
    ..................
    ..................
    ..................
    ..................
    ..................
    ..................
    ..................
    ..................
    ..................
    ..................
    ..................
    ..................
    ..................
    ..................
    ..................
    ..................
    ..................
    ..................
    ..................
    ..................
    ..................
    ..................
    ..................
    ..................
    ..................
    ..................
    ..................
    ..................
    ..................
    ..................
    ..................
    ..................
    ..................
    ..................
    ..................
    ..................
    ..................
    ..................
    ..................
    ..................
    ..................
    ..................
    ..................
    ..................
    ..................
    ..................
    ..................
    ..................
    ..................
    ..................
    ..................
    ..................
    ..................
    ..................
    ..................
    ..................
    ..................
    ..................
    ..................
    ..................
    ..................
    ..................
    ..................



# DOLLAR SIGN
0x24:
u+0024:
    .....................................
    .....................................
    .....................................
    .....................................
    ............@@@......@@@.............
    ............@@@......@@@.............
    ............@@@......@@@.............
    ...........@@@@@@@@@@@@@@............
    .........@@@@@@@@@@@@@@@@@@..........
    .......@@@@@@@@@@@@@@@@@@@@@@........
    ......@@@@@@@@@@@@@@@@@@@@@@@@.......
    .....@@@@@@@@@@......@@@@@@@@@@......
    ....@@@@@@@.@@@......@@@...@@@@@.....
    ...@@@@@@@..@@@......@@@....@@@@@....
    ..@@@@@@@...@@@......@@@.....@@@@@...
    .@@@@@@@@...@@@......@@@......@@@@@..
    .@@@@@@@....@@@......@@@.......@@@@@.
    @@@@@@@@....@@@......@@@........@@@..
    @@@@@@@.....@@@......@@@.........@...
    @@@@@@@.....@@@......@@@.............
    @@@@@@@.....@@@......@@@.............
    @@@@@@......@@@......@@@.............
    @@@@@@......@@@......@@@.............
    @@@@@@......@@@......@@@.............
    @@@@@@......@@@......@@@.............
    @@@@@.......@@@......@@@.............
    @@@@@.......@@@......@@@.............
    @@@@@.......@@@......@@@.............
    @@@@@.......@@@......@@@.............
    @@@@@.......@@@......@@@.............
    @@@@@.......@@@......@@@.............
    @@@@@.......@@@......@@@.............
    @@@@@@......@@@......@@@.............
    @@@@@@......@@@......@@@.............
    @@@@@@......@@@......@@@.............
    @@@@@@@.....@@@......@@@.............
    @@@@@@@.....@@@......@@@.............
    @@@@@@@.....@@@......@@@.............
    @@@@@@@@....@@@......@@@.............
    @@@@@@@@@...@@@......@@@.............
    @@@@@@@@@...@@@......@@@.............
    @@@@@@@@@@..@@@......@@@.............
    @@@@@@@@@@@@@@@......@@@.............
    @@@@@@@@@@@@@@@......@@@.............
    .@@@@@@@@@@@@@@......@@@.............
    .@@@@@@@@@@@@@@@@@@@.@@@.............
    .@@@@@@@@@@@@@@@@@@@@@@@.............
    ..@@@@@@@@@@@@@@@@@@@@@@.............
    ..@@@@@@@@@@@@@@@@@@@@@@@............
    ...@@@@@@@@@@@@@@@@@@@@@@@@..........
    ...@@@@@@@@@@@@@@@@@@@@@@@@@@........
    ....@@@@@@@@@@@@@@@@@@@@@@@@@@.......
    .....@@@@@@@@@@@@@@@@@@@@@@@@@@......
    ......@@@@@@@@@@@@@@@@@@@@@@@@@@.....
    .......@@@@@@@@@@@@@@@@@@@@@@@@@@....
    .........@@@@@@@@@@@@@@@@@@@@@@@@....
    ...........@@@@@@@@@@@@@@@@@@@@@@@...
    ............@@@@@@@@@@@@@@@@@@@@@@...
    ............@@@@@@@@@@@@@@@@@@@@@@@..
    ............@@@.@@@@@@@@@@@@@@@@@@@..
    ............@@@......@@@@@@@@@@@@@@..
    ............@@@......@@@@@@@@@@@@@@@.
    ............@@@......@@@@@@@@@@@@@@@.
    ............@@@......@@@..@@@@@@@@@@.
    ............@@@......@@@...@@@@@@@@@.
    ............@@@......@@@...@@@@@@@@@.
    ............@@@......@@@....@@@@@@@@.
    ............@@@......@@@.....@@@@@@@.
    ............@@@......@@@.....@@@@@@@.
    ............@@@......@@@.....@@@@@@@.
    ............@@@......@@@......@@@@@@.
    ............@@@......@@@......@@@@@@.
    ............@@@......@@@......@@@@@@.
    ............@@@......@@@.......@@@@@.
    ............@@@......@@@.......@@@@@.
    ............@@@......@@@.......@@@@@.
    ............@@@......@@@.......@@@@@.
    ............@@@......@@@.......@@@@@.
    ............@@@......@@@.......@@@@@.
    ............@@@......@@@.......@@@@@.
    ............@@@......@@@......@@@@@@.
    ............@@@......@@@......@@@@@@.
    ............@@@......@@@......@@@@@@.
    ............@@@......@@@......@@@@@@.
    ............@@@......@@@.....@@@@@@@.
    ............@@@......@@@.....@@@@@@@.
    ..@.........@@@......@@@.....@@@@@@@.
    .@@@........@@@......@@@....@@@@@@@@.
    @@@@@.......@@@......@@@....@@@@@@@..
    .@@@@@......@@@......@@@...@@@@@@@@..
    ..@@@@@.....@@@......@@@...@@@@@@@...
    ...@@@@@....@@@......@@@..@@@@@@@....
    ....@@@@@...@@@......@@@..@@@@@@.....
    .....@@@@@@.@@@......@@@@@@@@@@......
    ......@@@@@@@@@@@@@@@@@@@@@@@@.......
    .......@@@@@@@@@@@@@@@@@@@@@@........
    .........@@@@@@@@@@@@@@@@@@..........
    ...........@@@@@@@@@@@@@@............
    ............@@@......@@@.............
    ............@@@......@@@.............
    ............@@@......@@@.............
    .....................................
    .....................................
    .....................................
    .....................................
    .....................................
    .....................................
    .....................................
    .....................................
    .....................................
    .....................................
    .....................................
    .....................................
    .....................................
    .....................................
    .....................................
    .....................................
    .....................................
    .....................................
    .....................................
    .....................................
    .....................................
    .....................................
    .....................................
    .....................................
    .....................................
    .....................................
    .....................................



# PERCENT SIGN
0x25:
u+0025:
    .................................
    .................................
    .................................
    .................................
    .................................
    .................................
    ...............................@.
    .............................@@@.
    ......@@@@...................@@@.
    ....@@@@@@@@.................@@@.
    ...@@@@@@@@@@...............@@@..
    ...@@@@..@@@@...............@@@..
    ..@@@@....@@@@..............@@@..
    .@@@@......@@@@............@@@@..
    .@@@........@@@............@@@...
    .@@@........@@@............@@@...
    @@@..........@@@..........@@@@...
    @@@..........@@@..........@@@....
    @@@..........@@@..........@@@....
    @@@..........@@@.........@@@@....
    @@@..........@@@.........@@@.....
    @@@..........@@@.........@@@.....
    @@@..........@@@........@@@@.....
    @@@..........@@@........@@@......
    @@@..........@@@........@@@......
    .@@@........@@@........@@@@......
    .@@@........@@@........@@@.......
    .@@@@......@@@@........@@@.......
    ..@@@@....@@@@........@@@@.......
    ...@@@@..@@@@.........@@@........
    ...@@@@@@@@@@.........@@@........
    ....@@@@@@@@.........@@@@........
    ......@@@@...........@@@.........
    .....................@@@.........
    ....................@@@@.........
    ....................@@@..........
    ....................@@@..........
    ...................@@@@..........
    ...................@@@...........
    ...................@@@...........
    ..................@@@@...........
    ..................@@@............
    ..................@@@............
    .................@@@@............
    .................@@@.............
    .................@@@.............
    ................@@@@.............
    ................@@@..............
    ................@@@..............
    ...............@@@@..............
    ...............@@@...............
    ...............@@@...............
    ..............@@@@...............
    ..............@@@................
    ..............@@@................
    .............@@@@................
    .............@@@.................
    .............@@@.................
    ............@@@@.................
    ............@@@..................
    ............@@@..................
    ...........@@@@..................
    ...........@@@...................
    ...........@@@...................
    ..........@@@@...................
    ..........@@@....................
    ..........@@@....................
    .........@@@@....................
    .........@@@.....................
    .........@@@.....................
    ........@@@@.....................
    ........@@@......................
    ........@@@...........@@@@.......
    .......@@@@.........@@@@@@@@.....
    .......@@@.........@@@@@@@@@@....
    .......@@@.........@@@@..@@@@....
    ......@@@@........@@@@....@@@@...
    ......@@@........@@@@......@@@@..
    ......@@@........@@@........@@@..
    .....@@@@........@@@........@@@@.
    .....@@@........@@@..........@@@.
    .....@@@........@@@..........@@@.
    ....@@@@........@@@..........@@@.
    ....@@@.........@@@..........@@@.
    ....@@@.........@@@..........@@@.
    ...@@@@.........@@@..........@@@.
    ...@@@..........@@@..........@@@.
    ...@@@..........@@@..........@@@.
    ..@@@@..........@@@..........@@..
    ..@@@............@@@........@@@..
    ..@@@............@@@........@@@..
    .@@@@............@@@@......@@@@..
    .@@@..............@@@@....@@@@...
    .@@@...............@@@@..@@@@....
    @@@@...............@@@@@@@@@@....
    @@@.................@@@@@@@@.....
    @@@...................@@@@.......
    @@@..............................
    .................................
    .................................
    .................................
    .................................
    .................................
    .................................
    .................................
    .................................
    .................................
    .................................
    .................................
    .................................
    .................................
    .................................
    .................................
    .................................
    .................................
    .................................
    .................................
    .................................
    .................................
    .................................
    .................................
    .................................
    .................................
    .................................
    .................................
    .................................
    .................................
    .................................



# AMPERSAND
0x26:
u+0026:
    .............................
    .............................
    .............................
    .............................
    .............................
    .............................
    .............................
    .............................
    .............................
    .............................
    .............................
    .............................
    .............................
    .............................
    .............................
    .............................
    .............................
    .............................
    .............................
    .............................
    .............................
    .............................
    .............................
    .............................
    .............................
    .............................
    .............................
    .............................
    .............................
    .............................
    .............................
    .............................
    .............................
    .............................
    .............@@@@............
    .............@@@@............
    .............@@@@............
    .............@@@@............
    .............@@@@............
    .............@@@@............
    .............@@@@............
    .............@@@@............
    .............@@@@............
    .............@@@@............
    ............@@@@@@...........
    ..........@@@@@@@@@@.........
    ........@@@@@@@@@@@@@@.......
    .......@@@@@@@@@@@@@@@@......
    ......@@@@@@@@@@@.@@@@@@.....
    .....@@@@@@@.@@@@...@@@@@....
    .....@@@@@@..@@@@....@@@@....
    ....@@@@@@...@@@@....@@@@@...
    ....@@@@@@...@@@@.....@@@@...
    ...@@@@@@....@@@@.....@@@@@..
    ...@@@@@@....@@@@......@@@...
    ..@@@@@@.....@@@@......@@....
    ..@@@@@@.....@@@@............
    .@@@@@@@.....@@@@............
    .@@@@@@@.....@@@@............
    .@@@@@@@.....@@@@............
    .@@@@@@......@@@@............
    .@@@@@@......@@@@............
    @@@@@@@......@@@@............
    @@@@@@@......@@@@............
    @@@@@@@......@@@@............
    @@@@@@@......@@@@............
    @@@@@@@......@@@@............
    @@@@@@@......@@@@............
    @@@@@@@......@@@@............
    @@@@@@@......@@@@............
    @@@@@@@......@@@@............
    @@@@@@@......@@@@............
    @@@@@@@......@@@@............
    @@@@@@@......@@@@............
    @@@@@@@......@@@@............
    @@@@@@@......@@@@............
    @@@@@@@......@@@@............
    @@@@@@@......@@@@............
    @@@@@@@......@@@@............
    @@@@@@@......@@@@............
    .@@@@@@......@@@@............
    .@@@@@@......@@@@............
    .@@@@@@@.....@@@@............
    .@@@@@@@.....@@@@............
    .@@@@@@@.....@@@@............
    ..@@@@@@.....@@@@.........@..
    ..@@@@@@.....@@@@........@@..
    ...@@@@@@....@@@@........@@..
    ...@@@@@@....@@@@.......@@@..
    ....@@@@@@...@@@@.......@@...
    ....@@@@@@...@@@@......@@@...
    .....@@@@@@..@@@@.....@@@....
    .....@@@@@@@.@@@@....@@@@....
    ......@@@@@@@@@@@..@@@@@.....
    .......@@@@@@@@@@@@@@@@......
    ........@@@@@@@@@@@@@@.......
    ..........@@@@@@@@@@.........
    ............@@@@@@...........
    .............@@@@............
    .............@@@@............
    .............@@@@............
    .............@@@@............
    .............@@@@............
    .............@@@@............
    .............@@@@............
    .............@@@@............
    .............@@@@............
    .............@@@@............
    .............................
    .............................
    .............................
    .............................
    .............................
    .............................
    .............................
    .............................
    .............................
    .............................
    .............................
    .............................
    .............................
    .............................
    .............................
    .............................
    .............................
    .............................
    .............................
    .............................



# APOSTROPHE
0x27:
u+0027:
    ...........
    ...........
    ...........
    ...........
    ...........
    ...........
    ...........
    ...@@@.....
    ..@@@@@....
    .@@@@@@@...
    .@@@@@@@...
    @@@@@@@@@..
    @@@@@@@@@..
    @@@@@@@@@..
    @@@@@@@@@..
    @@@@@@@@@..
    @@@@@@@@@..
    .@@@@@@@@..
    .@@@@@@@@..
    ..@@@@@@@..
    ...@@@@@...
    ....@@@@...
    ....@@@@...
    .....@@....
    .....@@....
    .....@@....
    .....@.....
    .....@.....
    .....@.....
    ....@......
    ....@......
    ...........
    ...........
    ...........
    ...........
    ...........
    ...........
    ...........
    ...........
    ...........
    ...........
    ...........
    ...........
    ...........
    ...........
    ...........
    ...........
    ...........
    ...........
    ...........
    ...........
    ...........
    ...........
    ...........
    ...........
    ...........
    ...........
    ...........
    ...........
    ...........
    ...........
    ...........
    ...........
    ...........
    ...........
    ...........
    ...........
    ...........
    ...........
    ...........
    ...........
    ...........
    ...........
    ...........
    ...........
    ...........
    ...........
    ...........
    ...........
    ...........
    ...........
    ...........
    ...........
    ...........
    ...........
    ...........
    ...........
    ...........
    ...........
    ...........
    ...........
    ...........
    ...........
    ...........
    ...........
    ...........
    ...........
    ...........
    ...........
    ...........
    ...........
    ...........
    ...........
    ...........
    ...........
    ...........
    ...........
    ...........
    ...........
    ...........
    ...........
    ...........
    ...........
    ...........
    ...........
    ...........
    ...........
    ...........
    ...........
    ...........
    ...........
    ...........
    ...........
    ...........
    ...........
    ...........
    ...........
    ...........



# LEFT PARENTHESIS
0x28:
u+0028:
    ..................
    ..................
    ..................
    ..................
    ..................
    ..................
    ..................
    .............@@@..
    ............@@@...
    ..........@@@@@...
    .........@@@@@@...
    ........@@@@@@@...
    ........@@@@@@....
    .......@@@@@@@....
    .......@@@@@@@....
    ......@@@@@@@@....
    ......@@@@@@@.....
    ......@@@@@@@.....
    .....@@@@@@@@.....
    .....@@@@@@@@.....
    .....@@@@@@@@.....
    ....@@@@@@@@......
    ....@@@@@@@@......
    ....@@@@@@@@......
    ....@@@@@@@@......
    ...@@@@@@@@@......
    ...@@@@@@@@.......
    ...@@@@@@@@.......
    ...@@@@@@@@.......
    ..@@@@@@@@@.......
    ..@@@@@@@@@.......
    ..@@@@@@@@@.......
    ..@@@@@@@@........
    ..@@@@@@@@........
    .@@@@@@@@@........
    .@@@@@@@@@........
    .@@@@@@@@@........
    .@@@@@@@@@........
    .@@@@@@@@.........
    .@@@@@@@@.........
    @@@@@@@@@.........
    @@@@@@@@@.........
    @@@@@@@@@.........
    @@@@@@@@@.........
    @@@@@@@@@.........
    @@@@@@@@@.........
    @@@@@@@@@.........
    @@@@@@@@@.........
    @@@@@@@@@.........
    @@@@@@@@@.........
    @@@@@@@@@.........
    @@@@@@@@@.........
    @@@@@@@@@.........
    @@@@@@@@@.........
    @@@@@@@@@.........
    @@@@@@@@@.........
    @@@@@@@@@.........
    @@@@@@@@@.........
    @@@@@@@@@.........
    @@@@@@@@@.........
    @@@@@@@@@.........
    @@@@@@@@@.........
    @@@@@@@@@.........
    @@@@@@@@@.........
    @@@@@@@@@.........
    .@@@@@@@@.........
    .@@@@@@@@.........
    .@@@@@@@@@........
    .@@@@@@@@@........
    .@@@@@@@@@........
    .@@@@@@@@@........
    ..@@@@@@@@........
    ..@@@@@@@@........
    ..@@@@@@@@@.......
    ..@@@@@@@@@.......
    ..@@@@@@@@@.......
    ...@@@@@@@@.......
    ...@@@@@@@@.......
    ...@@@@@@@@.......
    ...@@@@@@@@@......
    ....@@@@@@@@......
    ....@@@@@@@@......
    ....@@@@@@@@......
    ....@@@@@@@@......
    .....@@@@@@@@.....
    .....@@@@@@@@.....
    .....@@@@@@@@.....
    ......@@@@@@@.....
    ......@@@@@@@.....
    ......@@@@@@@@....
    .......@@@@@@@....
    .......@@@@@@@....
    ........@@@@@@....
    ........@@@@@@@...
    .........@@@@@@...
    ..........@@@@@...
    ............@@@...
    .............@@@..
    ..................
    ..................
    ..................
    ..................
    ..................
    ..................
    ..................
    ..................
    ..................
    ..................
    ..................
    ..................
    ..................
    ..................
    ..................
    ..................
    ..................
    ..................
    ..................
    ..................
    ..................
    ..................
    ..................
    ..................
    ..................
    ..................
    ..................
    ..................
    ..................
    ..................



# RIGHT PARENTHESIS
0x29:
u+0029:
    ..................
    ..................
    ..................
    ..................
    ..................
    ..................
    ..................
    @@@...............
    .@@@..............
    .@@@@@............
    .@@@@@@...........
    .@@@@@@@..........
    ..@@@@@@..........
    ..@@@@@@@.........
    ..@@@@@@@.........
    ..@@@@@@@@........
    ...@@@@@@@........
    ...@@@@@@@........
    ...@@@@@@@@.......
    ...@@@@@@@@.......
    ...@@@@@@@@.......
    ....@@@@@@@@......
    ....@@@@@@@@......
    ....@@@@@@@@......
    ....@@@@@@@@......
    ....@@@@@@@@@.....
    .....@@@@@@@@.....
    .....@@@@@@@@.....
    .....@@@@@@@@.....
    .....@@@@@@@@@....
    .....@@@@@@@@@....
    .....@@@@@@@@@....
    ......@@@@@@@@....
    ......@@@@@@@@....
    ......@@@@@@@@@...
    ......@@@@@@@@@...
    ......@@@@@@@@@...
    ......@@@@@@@@@...
    .......@@@@@@@@...
    .......@@@@@@@@...
    .......@@@@@@@@@..
    .......@@@@@@@@@..
    .......@@@@@@@@@..
    .......@@@@@@@@@..
    .......@@@@@@@@@..
    .......@@@@@@@@@..
    .......@@@@@@@@@..
    .......@@@@@@@@@..
    .......@@@@@@@@@..
    .......@@@@@@@@@..
    .......@@@@@@@@@..
    .......@@@@@@@@@..
    .......@@@@@@@@@..
    .......@@@@@@@@@..
    .......@@@@@@@@@..
    .......@@@@@@@@@..
    .......@@@@@@@@@..
    .......@@@@@@@@@..
    .......@@@@@@@@@..
    .......@@@@@@@@@..
    .......@@@@@@@@@..
    .......@@@@@@@@@..
    .......@@@@@@@@@..
    .......@@@@@@@@@..
    .......@@@@@@@@@..
    .......@@@@@@@@...
    .......@@@@@@@@...
    ......@@@@@@@@@...
    ......@@@@@@@@@...
    ......@@@@@@@@@...
    ......@@@@@@@@@...
    ......@@@@@@@@....
    ......@@@@@@@@....
    .....@@@@@@@@@....
    .....@@@@@@@@@....
    .....@@@@@@@@@....
    .....@@@@@@@@.....
    .....@@@@@@@@.....
    .....@@@@@@@@.....
    ....@@@@@@@@@.....
    ....@@@@@@@@......
    ....@@@@@@@@......
    ....@@@@@@@@......
    ....@@@@@@@@......
    ...@@@@@@@@.......
    ...@@@@@@@@.......
    ...@@@@@@@@.......
    ...@@@@@@@........
    ...@@@@@@@........
    ..@@@@@@@@........
    ..@@@@@@@.........
    ..@@@@@@@.........
    ..@@@@@@..........
    .@@@@@@@..........
    .@@@@@@...........
    .@@@@@............
    .@@@..............
    @@@...............
    ..................
    ..................
    ..................
    ..................
    ..................
    ..................
    ..................
    ..................
    ..................
    ..................
    ..................
    ..................
    ..................
    ..................
    ..................
    ..................
    ..................
    ..................
    ..................
    ..................
    ..................
    ..................
    ..................
    ..................
    ..................
    ..................
    ..................
    ..................
    ..................
    ..................



# ASTERISK
0x2a:
u+002a:
    .........................
    .........................
    .........................
    .........................
    .........................
    .........................
    .........................
    .........................
    .........................
    .........................
    .........................
    .........................
    .........................
    .........................
    .........................
    .........................
    .........................
    .........................
    .........................
    .........................
    .........................
    .........................
    .........................
    .........................
    .........................
    .........................
    ...........@@@...........
    ...........@@@...........
    ...........@@@...........
    ...........@@@...........
    ....@......@@@......@....
    ....@@.....@@@.....@@....
    ...@@@.....@@@.....@@@...
    ...@@@@....@@@....@@@@...
    ....@@@....@@@....@@@....
    ....@@@@...@@@...@@@@....
    .....@@@@..@@@..@@@@.....
    .....@@@@..@@@..@@@@.....
    ......@@@@.@@@.@@@@......
    ......@@@@.@@@.@@@@......
    .......@@@@@@@@@@@.......
    ........@@@@@@@@@........
    ........@@@@@@@@@........
    ........@@@@@@@@@........
    @@@@@@@@@@@@@@@@@@@@@@@@.
    @@@@@@@@@@@@@@@@@@@@@@@@.
    @@@@@@@@@@@@@@@@@@@@@@@@.
    @@@@@@@@@@@@@@@@@@@@@@@@.
    ........@@@@@@@@@........
    ........@@@@@@@@@........
    ........@@@@@@@@@........
    .......@@@@@@@@@@@.......
    ......@@@@.@@@.@@@@......
    ......@@@@.@@@.@@@@......
    .....@@@@..@@@..@@@@.....
    .....@@@@..@@@..@@@@.....
    ....@@@@...@@@...@@@@....
    ....@@@....@@@....@@@....
    ...@@@@....@@@....@@@@...
    ...@@@.....@@@.....@@@...
    ....@@.....@@@.....@@....
    ....@......@@@......@....
    ...........@@@...........
    ...........@@@...........
    ...........@@@...........
    ...........@@@...........
    .........................
    .........................
    .........................
    .........................
    .........................
    .........................
    .........................
    .........................
    .........................
    .........................
    .........................
    .........................
    .........................
    .........................
    .........................
    .........................
    .........................
    .........................
    .........................
    .........................
    .........................
    .........................
    .........................
    .........................
    .........................
    .........................
    .........................
    .........................
    .........................
    .........................
    .........................
    .........................
    .........................
    .........................
    .........................
    .........................
    .........................
    .........................
    .........................
    .........................
    .........................
    .........................
    .........................
    .........................
    .........................
    .........................
    .........................
    .........................
    .........................
    .........................
    .........................
    .........................
    .........................
    .........................
    .........................
    .........................
    .........................
    .........................
    .........................
    .........................
    .........................
    .........................



# PLUS SIGN
0x2b:
u+002b:
    ..........................
    ..........................
    ..........................
    ..........................
    ..........................
    ..........................
    ..........................
    ..........................
    ..........................
    ..........................
    ..........................
    ..........................
    ..........................
    ..........................
    ..........................
    ..........................
    ..........................
    ..........................
    ..........................
    ..........................
    ..........................
    ..........................
    ..........................
    ..........................
    ..........................
    ..........................
    ..........................
    ..........................
    ..........................
    ..........................
    ..........................
    ..........................
    ..........................
    ..........................
    ..........................
    ..........................
    ..........................
    ..........................
    ..........................
    ..........................
    ..........................
    ..........................
    ..........................
    ..........................
    ..........................
    ...........@@@............
    ...........@@@............
    ...........@@@............
    ...........@@@............
    ...........@@@............
    ...........@@@............
    ...........@@@............
    ...........@@@............
    ...........@@@............
    ...........@@@............
    ...........@@@............
    ...........@@@............
    ...........@@@............
    ...........@@@............
    ...........@@@............
    ...........@@@............
    ...........@@@............
    ...........@@@............
    ...........@@@............
    @@@@@@@@@@@@@@@@@@@@@@@@@.
    @@@@@@@@@@@@@@@@@@@@@@@@@.
    @@@@@@@@@@@@@@@@@@@@@@@@@.
    @@@@@@@@@@@@@@@@@@@@@@@@@.
    ...........@@@............
    ...........@@@............
    ...........@@@............
    ...........@@@............
    ...........@@@............
    ...........@@@............
    ...........@@@............
    ...........@@@............
    ...........@@@............
    ...........@@@............
    ...........@@@............
    ...........@@@............
    ...........@@@............
    ...........@@@............
    ...........@@@............
    ...........@@@............
    ...........@@@............
    ...........@@@............
    ...........@@@............
    ..........................
    ..........................
    ..........................
    ..........................
    ..........................
    ..........................
    ..........................
    ..........................
    ..........................
    ..........................
    ..........................
    ..........................
    ..........................
    ..........................
    ..........................
    ..........................
    ..........................
    ..........................
    ..........................
    ..........................
    ..........................
    ..........................
    ..........................
    ..........................
    ..........................
    ..........................
    ..........................
    ..........................
    ..........................
    ..........................
    ..........................
    ..........................
    ..........................
    ..........................
    ..........................
    ..........................
    ..........................
    ..........................
    ..........................
    ..........................
    ..........................



# COMMA
0x2c:
u+002c:
    ...........
    ...........
    ...........
    ...........
    ...........
    ...........
    ...........
    ...........
    ...........
    ...........
    ...........
    ...........
    ...........
    ...........
    ...........
    ...........
    ...........
    ...........
    ...........
    ...........
    ...........
    ...........
    ...........
    ...........
    ...........
    ...........
    ...........
    ...........
    ...........
    ...........
    ...........
    ...........
    ...........
    ...........
    ...........
    ...........
    ...........
    ...........
    ...........
    ...........
    ...........
    ...........
    ...........
    ...........
    ...........
    ...........
    ...........
    ...........
    ...........
    ...........
    ...........
    ...........
    ...........
    ...........
    ...........
    ...........
    ...........
    ...........
    ...........
    ...........
    ...........
    ...........
    ...........
    ...........
    ...........
    ...........
    ...........
    ...........
    ...........
    ...........
    ...........
    ...........
    ...........
    ...........
    ...........
    ...........
    ...........
    ...........
    ...........
    ...........
    ...........
    ...........
    ...........
    ...........
    ...@@@.....
    ..@@@@@....
    .@@@@@@@...
    .@@@@@@@...
    @@@@@@@@@..
    @@@@@@@@@..
    @@@@@@@@@..
    @@@@@@@@@..
    @@@@@@@@@..
    @@@@@@@@@..
    .@@@@@@@@..
    .@@@@@@@@..
    ..@@@@@@@..
    ...@@@@@...
    ....@@@@...
    ....@@@@...
    .....@@@...
    .....@@....
    .....@@....
    .....@@....
    .....@.....
    .....@.....
    ....@......
    ....@......
    ...........
    ...........
    ...........
    ...........
    ...........
    ...........
    ...........
    ...........
    ...........
    ...........
    ...........
    ...........
    ...........
    ...........
    ...........
    ...........
    ...........
    ...........
    ...........
    ...........



# HYPHEN-MINUS
0x2d:
u+002d:
    .........................
    .........................
    .........................
    .........................
    .........................
    .........................
    .........................
    .........................
    .........................
    .........................
    .........................
    .........................
    .........................
    .........................
    .........................
    .........................
    .........................
    .........................
    .........................
    .........................
    .........................
    .........................
    .........................
    .........................
    .........................
    .........................
    .........................
    .........................
    .........................
    .........................
    .........................
    .........................
    .........................
    .........................
    .........................
    .........................
    .........................
    .........................
    .........................
    .........................
    .........................
    .........................
    .........................
    .........................
    .........................
    .........................
    .........................
    .........................
    .........................
    .........................
    .........................
    .........................
    .........................
    .........................
    .........................
    .........................
    .........................
    .........................
    .........................
    .........................
    .........................
    .........................
    .........................
    .........................
    @@@@@@@@@@@@@@@@@@@@@@@@.
    @@@@@@@@@@@@@@@@@@@@@@@@.
    @@@@@@@@@@@@@@@@@@@@@@@@.
    @@@@@@@@@@@@@@@@@@@@@@@@.
    .........................
    .........................
    .........................
    .........................
    .........................
    .........................
    .........................
    .........................
    .........................
    .........................
    .........................
    .........................
    .........................
    .........................
    .........................
    .........................
    .........................
    .........................
    .........................
    .........................
    .........................
    .........................
    .........................
    .........................
    .........................
    .........................
    .........................
    .........................
    .........................
    .........................
    .........................
    .........................
    .........................
    .........................
    .........................
    .........................
    .........................
    .........................
    .........................
    .........................
    .........................
    .........................
    .........................
    .........................
    .........................
    .........................
    .........................
    .........................
    .........................
    .........................
    .........................
    .........................
    .........................
    .........................
    .........................
    .........................
    .........................
    .........................
    .........................
    .........................



# FULL STOP
0x2e:
u+002e:
    ...........
    ...........
    ...........
    ...........
    ...........
    ...........
    ...........
    ...........
    ...........
    ...........
    ...........
    ...........
    ...........
    ...........
    ...........
    ...........
    ...........
    ...........
    ...........
    ...........
    ...........
    ...........
    ...........
    ...........
    ...........
    ...........
    ...........
    ...........
    ...........
    ...........
    ...........
    ...........
    ...........
    ...........
    ...........
    ...........
    ...........
    ...........
    ...........
    ...........
    ...........
    ...........
    ...........
    ...........
    ...........
    ...........
    ...........
    ...........
    ...........
    ...........
    ...........
    ...........
    ...........
    ...........
    ...........
    ...........
    ...........
    ...........
    ...........
    ...........
    ...........
    ...........
    ...........
    ...........
    ...........
    ...........
    ...........
    ...........
    ...........
    ...........
    ...........
    ...........
    ...........
    ...........
    ...........
    ...........
    ...........
    ...........
    ...........
    ...........
    ...........
    ...........
    ...........
    ...........
    ...@@@.....
    ..@@@@@....
    .@@@@@@@...
    .@@@@@@@...
    @@@@@@@@@..
    @@@@@@@@@..
    @@@@@@@@@..
    @@@@@@@@@..
    @@@@@@@@@..
    @@@@@@@@@..
    .@@@@@@@...
    .@@@@@@@...
    ..@@@@@....
    ...@@@.....
    ...........
    ...........
    ...........
    ...........
    ...........
    ...........
    ...........
    ...........
    ...........
    ...........
    ...........
    ...........
    ...........
    ...........
    ...........
    ...........
    ...........
    ...........
    ...........
    ...........
    ...........
    ...........
    ...........
    ...........
    ...........
    ...........
    ...........
    ...........
    ...........
    ...........



# SOLIDUS
0x2f:
u+002f:
    .................................
    .................................
    .................................
    .................................
    .................................
    .................................
    .................................
    .............................@@@.
    .............................@@@.
    .............................@@@.
    ............................@@@@.
    ............................@@@..
    ............................@@@..
    ...........................@@@@..
    ...........................@@@...
    ...........................@@@...
    ..........................@@@@...
    ..........................@@@....
    ..........................@@@....
    .........................@@@@....
    .........................@@@.....
    .........................@@@.....
    ........................@@@@.....
    ........................@@@......
    ........................@@@......
    .......................@@@@......
    .......................@@@.......
    .......................@@@.......
    ......................@@@@.......
    ......................@@@........
    ......................@@@........
    .....................@@@@........
    .....................@@@.........
    .....................@@@.........
    ....................@@@@.........
    ....................@@@..........
    ....................@@@..........
    ...................@@@@..........
    ...................@@@...........
    ...................@@@...........
    ..................@@@@...........
    ..................@@@............
    ..................@@@............
    .................@@@@............
    .................@@@.............
    .................@@@.............
    ................@@@@.............
    ................@@@..............
    ................@@@..............
    ...............@@@@..............
    ...............@@@...............
    ...............@@@...............
    ..............@@@@...............
    ..............@@@................
    ..............@@@................
    .............@@@@................
    .............@@@.................
    .............@@@.................
    ............@@@@.................
    ............@@@..................
    ............@@@..................
    ...........@@@@..................
    ...........@@@...................
    ...........@@@...................
    ..........@@@@...................
    ..........@@@....................
    ..........@@@....................
    .........@@@@....................
    .........@@@.....................
    .........@@@.....................
    ........@@@@.....................
    ........@@@......................
    ........@@@......................
    .......@@@@......................
    .......@@@.......................
    .......@@@.......................
    ......@@@@.......................
    ......@@@........................
    ......@@@........................
    .....@@@@........................
    .....@@@.........................
    .....@@@.........................
    ....@@@@.........................
    ....@@@..........................
    ....@@@..........................
    ...@@@@..........................
    ...@@@...........................
    ...@@@...........................
    ..@@@@...........................
    ..@@@............................
    ..@@@............................
    .@@@@............................
    .@@@.............................
    .@@@.............................
    @@@@.............................
    @@@..............................
    @@@..............................
    @@@..............................
    .................................
    .................................
    .................................
    .................................
    .................................
    .................................
    .................................
    .................................
    .................................
    .................................
    .................................
    .................................
    .................................
    .................................
    .................................
    .................................
    .................................
    .................................
    .................................
    .................................
    .................................
    .................................
    .................................
    .................................
    .................................
    .................................
    .................................
    .................................
    .................................
    .................................



# DIGIT ZERO
0x30:
u+0030:
    .....................................
    .....................................
    .....................................
    .....................................
    .....................................
    .....................................
    .....................................
    ...............@@@@@@................
    .............@@@@@@@@@@..............
    ............@@@@@@@@@@@@.............
    ...........@@@@@@@@@@@@@@............
    ..........@@@@@@....@@@@@@...........
    .........@@@@@@......@@@@@@..........
    ........@@@@@@........@@@@@@.........
    .......@@@@@@..........@@@@@@........
    .......@@@@@@..........@@@@@@........
    ......@@@@@@............@@@@@@.......
    ......@@@@@@............@@@@@@.......
    .....@@@@@@@............@@@@@@@......
    .....@@@@@@..............@@@@@@......
    ....@@@@@@@..............@@@@@@@.....
    ....@@@@@@@..............@@@@@@@.....
    ....@@@@@@................@@@@@@.....
    ...@@@@@@@................@@@@@@@....
    ...@@@@@@@................@@@@@@@....
    ...@@@@@@@................@@@@@@@....
    ..@@@@@@@@................@@@@@@@@...
    ..@@@@@@@..................@@@@@@@...
    ..@@@@@@@..................@@@@@@@...
    ..@@@@@@@..................@@@@@@@...
    .@@@@@@@@..................@@@@@@@@..
    .@@@@@@@@..................@@@@@@@@..
    .@@@@@@@@..................@@@@@@@@..
    .@@@@@@@@..................@@@@@@@@..
    .@@@@@@@@..................@@@@@@@@..
    .@@@@@@@@..................@@@@@@@@..
    .@@@@@@@@..................@@@@@@@@..
    @@@@@@@@@..................@@@@@@@@@.
    @@@@@@@@@..................@@@@@@@@@.
    @@@@@@@@@..................@@@@@@@@@.
    @@@@@@@@@..................@@@@@@@@@.
    @@@@@@@@@..................@@@@@@@@@.
    @@@@@@@@@..................@@@@@@@@@.
    @@@@@@@@@..................@@@@@@@@@.
    @@@@@@@@@..................@@@@@@@@@.
    @@@@@@@@@..................@@@@@@@@@.
    @@@@@@@@@..................@@@@@@@@@.
    @@@@@@@@@..................@@@@@@@@@.
    @@@@@@@@@..................@@@@@@@@@.
    @@@@@@@@@..................@@@@@@@@@.
    @@@@@@@@@..................@@@@@@@@@.
    @@@@@@@@@..................@@@@@@@@@.
    @@@@@@@@@..................@@@@@@@@@.
    @@@@@@@@@..................@@@@@@@@@.
    @@@@@@@@@..................@@@@@@@@@.
    @@@@@@@@@..................@@@@@@@@@.
    @@@@@@@@@..................@@@@@@@@@.
    @@@@@@@@@..................@@@@@@@@@.
    @@@@@@@@@..................@@@@@@@@@.
    @@@@@@@@@..................@@@@@@@@@.
    @@@@@@@@@..................@@@@@@@@@.
    @@@@@@@@@..................@@@@@@@@@.
    @@@@@@@@@..................@@@@@@@@@.
    @@@@@@@@@..................@@@@@@@@@.
    @@@@@@@@@..................@@@@@@@@@.
    @@@@@@@@@..................@@@@@@@@@.
    @@@@@@@@@..................@@@@@@@@@.
    @@@@@@@@@..................@@@@@@@@@.
    .@@@@@@@@..................@@@@@@@@..
    .@@@@@@@@..................@@@@@@@@..
    .@@@@@@@@..................@@@@@@@@..
    .@@@@@@@@..................@@@@@@@@..
    .@@@@@@@@..................@@@@@@@@..
    .@@@@@@@@..................@@@@@@@@..
    .@@@@@@@@..................@@@@@@@@..
    ..@@@@@@@..................@@@@@@@...
    ..@@@@@@@..................@@@@@@@...
    ..@@@@@@@..................@@@@@@@...
    ..@@@@@@@@................@@@@@@@@...
    ...@@@@@@@................@@@@@@@....
    ...@@@@@@@................@@@@@@@....
    ...@@@@@@@................@@@@@@@....
    ....@@@@@@................@@@@@@.....
    ....@@@@@@@..............@@@@@@@.....
    ....@@@@@@@..............@@@@@@@.....
    .....@@@@@@..............@@@@@@......
    .....@@@@@@@............@@@@@@@......
    ......@@@@@@............@@@@@@.......
    ......@@@@@@............@@@@@@.......
    .......@@@@@@..........@@@@@@........
    .......@@@@@@..........@@@@@@........
    ........@@@@@@........@@@@@@.........
    .........@@@@@@......@@@@@@..........
    ..........@@@@@@....@@@@@@...........
    ...........@@@@@@@@@@@@@@............
    ............@@@@@@@@@@@@.............
    .............@@@@@@@@@@..............
    ...............@@@@@@................
    .....................................
    .....................................
    .....................................
    .....................................
    .....................................
    .....................................
    .....................................
    .....................................
    .....................................
    .....................................
    .....................................
    .....................................
    .....................................
    .....................................
    .....................................
    .....................................
    .....................................
    .....................................
    .....................................
    .....................................
    .....................................
    .....................................
    .....................................
    .....................................
    .....................................
    .....................................
    .....................................
    .....................................
    .....................................
    .....................................



# DIGIT ONE
0x31:
u+0031:
    ..................
    ..................
    ..................
    ..................
    ..................
    ..................
    ..................
    ............@.....
    ............@.....
    ...........@@.....
    ...........@@.....
    ..........@@@.....
    ..........@@@.....
    .........@@@@.....
    .........@@@@.....
    ........@@@@@.....
    .......@@@@@@.....
    .......@@@@@@.....
    ......@@@@@@@.....
    ......@@@@@@@.....
    .....@@@@@@@@.....
    .....@@@@@@@@.....
    ....@@@@@@@@@.....
    ...@@@@@@@@@@.....
    ...@@@@@@@@@@.....
    ..@@@@@@@@@@@.....
    ..@@@@@@@@@@@.....
    .@@@@@@@@@@@@.....
    ....@@@@@@@@@.....
    ....@@@@@@@@@.....
    ....@@@@@@@@@.....
    ....@@@@@@@@@.....
    ....@@@@@@@@@.....
    ....@@@@@@@@@.....
    ....@@@@@@@@@.....
    ....@@@@@@@@@.....
    ....@@@@@@@@@.....
    ....@@@@@@@@@.....
    ....@@@@@@@@@.....
    ....@@@@@@@@@.....
    ....@@@@@@@@@.....
    ....@@@@@@@@@.....
    ....@@@@@@@@@.....
    ....@@@@@@@@@.....
    ....@@@@@@@@@.....
    ....@@@@@@@@@.....
    ....@@@@@@@@@.....
    ....@@@@@@@@@.....
    ....@@@@@@@@@.....
    ....@@@@@@@@@.....
    ....@@@@@@@@@.....
    ....@@@@@@@@@.....
    ....@@@@@@@@@.....
    ....@@@@@@@@@.....
    ....@@@@@@@@@.....
    ....@@@@@@@@@.....
    ....@@@@@@@@@.....
    ....@@@@@@@@@.....
    ....@@@@@@@@@.....
    ....@@@@@@@@@.....
    ....@@@@@@@@@.....
    ....@@@@@@@@@.....
    ....@@@@@@@@@.....
    ....@@@@@@@@@.....
    ....@@@@@@@@@.....
    ....@@@@@@@@@.....
    ....@@@@@@@@@.....
    ....@@@@@@@@@.....
    ....@@@@@@@@@.....
    ....@@@@@@@@@.....
    ....@@@@@@@@@.....
    ....@@@@@@@@@.....
    ....@@@@@@@@@.....
    ....@@@@@@@@@.....
    ....@@@@@@@@@.....
    ....@@@@@@@@@.....
    ....@@@@@@@@@.....
    ....@@@@@@@@@.....
    ....@@@@@@@@@.....
    ....@@@@@@@@@.....
    ....@@@@@@@@@.....
    ....@@@@@@@@@.....
    ....@@@@@@@@@.....
    ....@@@@@@@@@.....
    ....@@@@@@@@@.....
    ....@@@@@@@@@.....
    ....@@@@@@@@@.....
    ....@@@@@@@@@.....
    ....@@@@@@@@@.....
    ....@@@@@@@@@.....
    ....@@@@@@@@@.....
    ....@@@@@@@@@.....
    ....@@@@@@@@@.....
    ....@@@@@@@@@.....
    @@@@@@@@@@@@@@@@@.
    @@@@@@@@@@@@@@@@@.
    @@@@@@@@@@@@@@@@@.
    @@@@@@@@@@@@@@@@@.
    ..................
    ..................
    ..................
    ..................
    ..................
    ..................
    ..................
    ..................
    ..................
    ..................
    ..................
    ..................
    ..................
    ..................
    ..................
    ..................
    ..................
    ..................
    ..................
    ..................
    ..................
    ..................
    ..................
    ..................
    ..................
    ..................
    ..................
    ..................
    ..................
    ..................



# DIGIT TWO
0x32:
u+0032:
    ......................................
    ......................................
    ......................................
    ......................................
    ......................................
    ......................................
    ......................................
    ............@@@@@@@@@@@...............
    ..........@@@@@@@@@@@@@@@.............
    ........@@@@@@@@@@@@@@@@@@@...........
    .......@@@@@@@@@@@@@@@@@@@@@..........
    ......@@@@@@@.....@@@@@@@@@@@.........
    .....@@@@@@.........@@@@@@@@@@........
    ....@@@@@@...........@@@@@@@@@@.......
    ...@@@@@@.............@@@@@@@@@.......
    ..@@@@@@...............@@@@@@@@@......
    .....@@................@@@@@@@@@......
    ........................@@@@@@@@@.....
    ........................@@@@@@@@@.....
    .........................@@@@@@@@@....
    .........................@@@@@@@@@....
    ..........................@@@@@@@@....
    ..........................@@@@@@@@....
    ..........................@@@@@@@@@...
    ..........................@@@@@@@@@...
    ...........................@@@@@@@@...
    ...........................@@@@@@@@...
    ...........................@@@@@@@@@..
    ...........................@@@@@@@@@..
    ...........................@@@@@@@@@..
    ...........................@@@@@@@@@..
    ...........................@@@@@@@@@..
    ...........................@@@@@@@@@..
    ...........................@@@@@@@@@..
    ...........................@@@@@@@@@..
    ...........................@@@@@@@@@..
    ...........................@@@@@@@@@..
    ...........................@@@@@@@@@..
    ...........................@@@@@@@@@..
    ...........................@@@@@@@@@..
    ..........................@@@@@@@@@@..
    ..........................@@@@@@@@@@..
    ..........................@@@@@@@@@...
    ..........................@@@@@@@@@...
    .........................@@@@@@@@@@...
    .........................@@@@@@@@@@...
    ........................@@@@@@@@@@....
    ........................@@@@@@@@@@....
    .......................@@@@@@@@@@@....
    .......................@@@@@@@@@@.....
    ......................@@@@@@@@@@@.....
    .....................@@@@@@@@@@@......
    .....................@@@@@@@@@@@......
    ....................@@@@@@@@@@@.......
    ....................@@@@@@@@@@@.......
    ...................@@@@@@@@@@@........
    ..................@@@@@@@@@@@@........
    .................@@@@@@@@@@@@.........
    .................@@@@@@@@@@@..........
    ................@@@@@@@@@@@...........
    ...............@@@@@@@@@@@............
    ...............@@@@@@@@@@.............
    ..............@@@@@@@@@@..............
    .............@@@@@@@@@................
    .............@@@@@@@@.................
    ............@@@@@@@@..................
    ............@@@@@@@...................
    ...........@@@@@@@....................
    ...........@@@@@@.....................
    ..........@@@@@@......................
    ..........@@@@@.......................
    .........@@@@@........................
    .........@@@@.........................
    ........@@@@..........................
    ........@@@@..........................
    .......@@@@...........................
    .......@@@@...........................
    ......@@@@............................
    ......@@@@............................
    ......@@@.............................
    .....@@@@...........................@.
    .....@@@...........................@..
    ....@@@@.........................@@@..
    ....@@@@.......................@@@@@..
    ....@@@@@@@@@@@@@@@@@@@@@@@@@@@@@@@...
    ...@@@@@@@@@@@@@@@@@@@@@@@@@@@@@@@@...
    ...@@@@@@@@@@@@@@@@@@@@@@@@@@@@@@@@...
    ...@@@@@@@@@@@@@@@@@@@@@@@@@@@@@@@@...
    ..@@@@@@@@@@@@@@@@@@@@@@@@@@@@@@@@....
    ..@@@@@@@@@@@@@@@@@@@@@@@@@@@@@@@@....
    ..@@@@@@@@@@@@@@@@@@@@@@@@@@@@@@@@....
    .@@@@@@@@@@@@@@@@@@@@@@@@@@@@@@@@@....
    .@@@@@@@@@@@@@@@@@@@@@@@@@@@@@@@@.....
    .@@@@@@@@@@@@@@@@@@@@@@@@@@@@@@@@.....
    .@@@@@@@@@@@@@@@@@@@@@@@@@@@@@@@@.....
    @@@@@@@@@@@@@@@@@@@@@@@@@@@@@@@@......
    @@@@@@@@@@@@@@@@@@@@@@@@@@@@@@@@......
    @@@@@@@@@@@@@@@@@@@@@@@@@@@@@@@@......
    ......................................
    ......................................
    ......................................
    ......................................
    ......................................
    ......................................
    ......................................
    ......................................
    ......................................
    ......................................
    ......................................
    ......................................
    ......................................
    ......................................
    ......................................
    ......................................
    ......................................
    ......................................
    ......................................
    ......................................
    ......................................
    ......................................
    ......................................
    ......................................
    ......................................
    ......................................
    ......................................
    ......................................
    ......................................
    ......................................



# DIGIT THREE
0x33:
u+0033:
    .....................................
    .....................................
    .....................................
    .....................................
    .....................................
    .....................................
    .....................................
    .............@@@@@@@@................
    ..........@@@@@@@@@@@@@..............
    ........@@@@@@@@@@@@@@@@@............
    .......@@@@@@@@@@@@@@@@@@@...........
    ......@@@@@@@......@@@@@@@@..........
    .....@@@@@@@........@@@@@@@@.........
    ....@@@@@@@..........@@@@@@@@........
    ....@@@@@@............@@@@@@@@.......
    ...@@@@@@.............@@@@@@@@.......
    ..@@@@@@...............@@@@@@@@......
    ....@@@@...............@@@@@@@@......
    ......@.................@@@@@@@......
    ........................@@@@@@@@.....
    ........................@@@@@@@@.....
    .........................@@@@@@@.....
    .........................@@@@@@@@....
    .........................@@@@@@@@....
    .........................@@@@@@@@....
    .........................@@@@@@@@....
    .........................@@@@@@@@....
    .........................@@@@@@@@....
    .........................@@@@@@@@....
    .........................@@@@@@@@....
    .........................@@@@@@@@....
    .........................@@@@@@@@....
    .........................@@@@@@@@....
    .........................@@@@@@@.....
    ........................@@@@@@@@.....
    ........................@@@@@@@@.....
    ........................@@@@@@@......
    ........................@@@@@@@......
    .......................@@@@@@@@......
    .......................@@@@@@@.......
    ......................@@@@@@@@.......
    ......................@@@@@@@........
    .....................@@@@@@@@........
    .....................@@@@@@@.........
    ....................@@@@@@@..........
    ...................@@@@@@@...........
    ..................@@@@@@@............
    .................@@@@@@@@............
    .................@@@@@@@@............
    ..................@@@@@@@@...........
    ...................@@@@@@@@..........
    ....................@@@@@@@@.........
    .....................@@@@@@@@........
    ......................@@@@@@@@.......
    ......................@@@@@@@@@......
    .......................@@@@@@@@......
    .......................@@@@@@@@@.....
    ........................@@@@@@@@.....
    ........................@@@@@@@@@....
    ........................@@@@@@@@@....
    .........................@@@@@@@@@...
    .........................@@@@@@@@@...
    .........................@@@@@@@@@...
    ..........................@@@@@@@@@..
    ..........................@@@@@@@@@..
    ..........................@@@@@@@@@..
    ..........................@@@@@@@@@..
    ...........................@@@@@@@@..
    ...........................@@@@@@@@@.
    ...........................@@@@@@@@@.
    ...........................@@@@@@@@@.
    ...........................@@@@@@@@@.
    ...........................@@@@@@@@@.
    ...........................@@@@@@@@@.
    ...........................@@@@@@@@@.
    ...........................@@@@@@@@@.
    ...........................@@@@@@@@@.
    ...........................@@@@@@@@@.
    ...........................@@@@@@@@@.
    ...........................@@@@@@@@..
    ..........................@@@@@@@@@..
    ..........................@@@@@@@@@..
    ..........................@@@@@@@@@..
    .........................@@@@@@@@@...
    ....@....................@@@@@@@@@...
    ...@@....................@@@@@@@@@...
    ..@@@@..................@@@@@@@@@....
    .@@@@@..................@@@@@@@@@....
    .@@@@@@................@@@@@@@@@.....
    .@@@@@@@...............@@@@@@@@@.....
    ..@@@@@@@.............@@@@@@@@@......
    ...@@@@@@@...........@@@@@@@@@@......
    ....@@@@@@@.........@@@@@@@@@@.......
    .....@@@@@@@@.....@@@@@@@@@@@........
    ......@@@@@@@@@@@@@@@@@@@@@@.........
    .......@@@@@@@@@@@@@@@@@@@@..........
    .........@@@@@@@@@@@@@@@@............
    ...........@@@@@@@@@@@@..............
    .....................................
    .....................................
    .....................................
    .....................................
    .....................................
    .....................................
    .....................................
    .....................................
    .....................................
    .....................................
    .....................................
    .....................................
    .....................................
    .....................................
    .....................................
    .....................................
    .....................................
    .....................................
    .....................................
    .....................................
    .....................................
    .....................................
    .....................................
    .....................................
    .....................................
    .....................................
    .....................................
    .....................................
    .....................................
    .....................................



# DIGIT FOUR
0x34:
u+0034:
    .......................................
    .......................................
    .......................................
    .......................................
    .......................................
    .......................................
    .......................................
    .................................@.....
    .................................@.....
    ................................@@.....
    ................................@@.....
    ...............................@@@.....
    ...............................@@@.....
    ..............................@@@@.....
    ..............................@@@@.....
    .............................@@@@@.....
    .............................@@@@@.....
    ............................@@@@@@.....
    ............................@@@@@@.....
    ............................@@@@@@.....
    ...........................@@@@@@@.....
    ...........................@@@@@@@.....
    ..........................@@@@@@@@.....
    ..........................@@@@@@@@.....
    .........................@@@@@@@@@.....
    .........................@@@@@@@@@.....
    ........................@@@@@@@@@@.....
    ........................@@@@@@@@@@.....
    .......................@@@@@@@@@@@.....
    .......................@@@@@@@@@@@.....
    ......................@@@@@@@@@@@@.....
    ......................@@@@@@@@@@@@.....
    .....................@@@@@@@@@@@@@.....
    .....................@@@@@@@@@@@@@.....
    .....................@@@@@@@@@@@@@.....
    ....................@@@@.@@@@@@@@@.....
    ....................@@@@.@@@@@@@@@.....
    ...................@@@@..@@@@@@@@@.....
    ...................@@@@..@@@@@@@@@.....
    ..................@@@@...@@@@@@@@@.....
    ..................@@@@...@@@@@@@@@.....
    .................@@@@@...@@@@@@@@@.....
    .................@@@@....@@@@@@@@@.....
    ................@@@@@....@@@@@@@@@.....
    ................@@@@.....@@@@@@@@@.....
    ...............@@@@@.....@@@@@@@@@.....
    ...............@@@@......@@@@@@@@@.....
    ..............@@@@@......@@@@@@@@@.....
    ..............@@@@.......@@@@@@@@@.....
    ..............@@@@.......@@@@@@@@@.....
    .............@@@@........@@@@@@@@@.....
    .............@@@@........@@@@@@@@@.....
    ............@@@@.........@@@@@@@@@.....
    ............@@@@.........@@@@@@@@@.....
    ...........@@@@..........@@@@@@@@@.....
    ...........@@@@..........@@@@@@@@@.....
    ..........@@@@@..........@@@@@@@@@.....
    ..........@@@@...........@@@@@@@@@.....
    .........@@@@@...........@@@@@@@@@.....
    .........@@@@............@@@@@@@@@.....
    ........@@@@@............@@@@@@@@@.....
    ........@@@@.............@@@@@@@@@.....
    .......@@@@@.............@@@@@@@@@.....
    .......@@@@..............@@@@@@@@@.....
    .......@@@@..............@@@@@@@@@.....
    ......@@@@@@@@@@@@@@@@@@@@@@@@@@@@@@@@.
    ......@@@@@@@@@@@@@@@@@@@@@@@@@@@@@@@@.
    .....@@@@@@@@@@@@@@@@@@@@@@@@@@@@@@@@@.
    .....@@@@@@@@@@@@@@@@@@@@@@@@@@@@@@@@@.
    ....@@@@@@@@@@@@@@@@@@@@@@@@@@@@@@@@@@.
    ....@@@@@@@@@@@@@@@@@@@@@@@@@@@@@@@@@@.
    ...@@@@@@@@@@@@@@@@@@@@@@@@@@@@@@@@@@@.
    ...@@@@@@@@@@@@@@@@@@@@@@@@@@@@@@@@@@@.
    ..@@@@@@@@@@@@@@@@@@@@@@@@@@@@@@@@@@@@.
    ..@@@@@@@@@@@@@@@@@@@@@@@@@@@@@@@@@@@@.
    .@@@@@@@@@@@@@@@@@@@@@@@@@@@@@@@@@@@@@.
    .@@@@@@@@@@@@@@@@@@@@@@@@@@@@@@@@@@@@@.
    .@@@@@@@@@@@@@@@@@@@@@@@@@@@@@@@@@@@@@.
    @@@@@@@@@@@@@@@@@@@@@@@@@@@@@@@@@@@@@@.
    .........................@@@@@@@@@.....
    .........................@@@@@@@@@.....
    .........................@@@@@@@@@.....
    .........................@@@@@@@@@.....
    .........................@@@@@@@@@.....
    .........................@@@@@@@@@.....
    .........................@@@@@@@@@.....
    .........................@@@@@@@@@.....
    .........................@@@@@@@@@.....
    .........................@@@@@@@@@.....
    .........................@@@@@@@@@.....
    .........................@@@@@@@@@.....
    .........................@@@@@@@@@.....
    .........................@@@@@@@@@.....
    .........................@@@@@@@@@.....
    .....................@@@@@@@@@@@@@@@@@.
    .....................@@@@@@@@@@@@@@@@@.
    .....................@@@@@@@@@@@@@@@@@.
    .....................@@@@@@@@@@@@@@@@@.
    .......................................
    .......................................
    .......................................
    .......................................
    .......................................
    .......................................
    .......................................
    .......................................
    .......................................
    .......................................
    .......................................
    .......................................
    .......................................
    .......................................
    .......................................
    .......................................
    .......................................
    .......................................
    .......................................
    .......................................
    .......................................
    .......................................
    .......................................
    .......................................
    .......................................
    .......................................
    .......................................
    .......................................
    .......................................
    .......................................



# DIGIT FIVE
0x35:
u+0035:
    ...................................
    ...................................
    ...................................
    ...................................
    ...................................
    ...................................
    ...................................
    ......@@@@@@@@@@@@@@@@@@@@@@@@@@@@.
    ......@@@@@@@@@@@@@@@@@@@@@@@@@@@@.
    ......@@@@@@@@@@@@@@@@@@@@@@@@@@@..
    ......@@@@@@@@@@@@@@@@@@@@@@@@@@@..
    .....@@@@@@@@@@@@@@@@@@@@@@@@@@@@..
    .....@@@@@@@@@@@@@@@@@@@@@@@@@@@@..
    .....@@@@@@@@@@@@@@@@@@@@@@@@@@@...
    .....@@@@@@@@@@@@@@@@@@@@@@@@@@@...
    .....@@@@@@@@@@@@@@@@@@@@@@@@@@@...
    .....@@@@@@@@@@@@@@@@@@@@@@@@@@@...
    .....@@@@@@@@@@@@@@@@@@@@@@@@@@....
    .....@@@@@@@@@@@@@@@@@@@@@@@@@@....
    .....@@@@@@@@@@@@@@@@@@@@@@@@@@....
    ....@@@@@@@@@@@@@@@@@@@@@@@@@@@....
    ....@@@@...........................
    ....@@@@...........................
    ....@@@@...........................
    ....@@@@...........................
    ....@@@@...........................
    ....@@@............................
    ....@@@............................
    ....@@@............................
    ...@@@@............................
    ...@@@@............................
    ...@@@@............................
    ...@@@@............................
    ...@@@@............................
    ...@@@@............................
    ...@@@@............................
    ...@@@.............................
    ...@@@.............................
    ...@@@.............................
    ..@@@@.............................
    ..@@@@.......@@@@@@@...............
    ..@@@@....@@@@@@@@@@@@@............
    ..@@@@..@@@@@@@@@@@@@@@@...........
    ..@@@@.@@@@@@@@@@@@@@@@@@..........
    ..@@@@@@@@@@@@@@@@@@@@@@@@.........
    ..@@@@@@@@@@@@@@@@@@@@@@@@@........
    ..@@@@@@@@@@@@@@@@@@@@@@@@@@.......
    ..@@@@@@@.....@@@@@@@@@@@@@@.......
    .@@@@@...........@@@@@@@@@@@@......
    .@@@...............@@@@@@@@@@......
    .@..................@@@@@@@@@@.....
    ....................@@@@@@@@@@.....
    .....................@@@@@@@@@@....
    .....................@@@@@@@@@@....
    ......................@@@@@@@@@....
    ......................@@@@@@@@@....
    ......................@@@@@@@@@@...
    .......................@@@@@@@@@...
    .......................@@@@@@@@@...
    .......................@@@@@@@@@...
    .......................@@@@@@@@@...
    ........................@@@@@@@@@..
    ........................@@@@@@@@@..
    ........................@@@@@@@@@..
    ........................@@@@@@@@@..
    ........................@@@@@@@@@..
    ........................@@@@@@@@@..
    ........................@@@@@@@@@..
    ........................@@@@@@@@@..
    ........................@@@@@@@@@..
    ........................@@@@@@@@@..
    ........................@@@@@@@@@..
    ........................@@@@@@@@@..
    ........................@@@@@@@@@..
    ........................@@@@@@@@@..
    ........................@@@@@@@@@..
    ........................@@@@@@@@@..
    ........................@@@@@@@@...
    ........................@@@@@@@@...
    ........................@@@@@@@@...
    .......................@@@@@@@@@...
    .......................@@@@@@@@....
    .......................@@@@@@@@....
    .......................@@@@@@@@....
    .......................@@@@@@@.....
    ......................@@@@@@@@.....
    ......................@@@@@@@@.....
    ...@..................@@@@@@@......
    ..@@@................@@@@@@@@......
    .@@@@@...............@@@@@@@.......
    @@@@@@@.............@@@@@@@@.......
    .@@@@@@@...........@@@@@@@@........
    ..@@@@@@@.........@@@@@@@@.........
    ...@@@@@@@@.....@@@@@@@@@..........
    ....@@@@@@@@@@@@@@@@@@@@...........
    .....@@@@@@@@@@@@@@@@@.............
    .......@@@@@@@@@@@@@...............
    ..........@@@@@@@@.................
    ...................................
    ...................................
    ...................................
    ...................................
    ...................................
    ...................................
    ...................................
    ...................................
    ...................................
    ...................................
    ...................................
    ...................................
    ...................................
    ...................................
    ...................................
    ...................................
    ...................................
    ...................................
    ...................................
    ...................................
    ...................................
    ...................................
    ...................................
    ...................................
    ...................................
    ...................................
    ...................................
    ...................................
    ...................................
    ...................................



# DIGIT SIX
0x36:
u+0036:
    ....................................
    ....................................
    ....................................
    ....................................
    ....................................
    ....................................
    ....................................
    ...............@@@@@@@@@@...........
    .............@@@@@@@@@@@@@@.........
    ...........@@@@@@@@@@@@@@@@@........
    ..........@@@@@@@@@@@@@@@@@@@@......
    .........@@@@@@@@.......@@@@@@@.....
    ........@@@@@@@...........@@@@@@....
    ........@@@@@@.............@@@@@@...
    .......@@@@@@...............@@@@....
    ......@@@@@@@................@@.....
    ......@@@@@@........................
    .....@@@@@@@........................
    .....@@@@@@.........................
    ....@@@@@@@.........................
    ....@@@@@@@.........................
    ...@@@@@@@..........................
    ...@@@@@@@..........................
    ...@@@@@@@..........................
    ..@@@@@@@@..........................
    ..@@@@@@@@..........................
    ..@@@@@@@@..........................
    ..@@@@@@@...........................
    .@@@@@@@@...........................
    .@@@@@@@@...........................
    .@@@@@@@@...........................
    .@@@@@@@@...........................
    .@@@@@@@@...........................
    @@@@@@@@@...........................
    @@@@@@@@@...........................
    @@@@@@@@@...........................
    @@@@@@@@@...........................
    @@@@@@@@@...........................
    @@@@@@@@@...........................
    @@@@@@@@@...........................
    @@@@@@@@@...........................
    @@@@@@@@@........@@@@@@@............
    @@@@@@@@@......@@@@@@@@@@@..........
    @@@@@@@@@.....@@@@@@@@@@@@@.........
    @@@@@@@@@....@@@@@@@@@@@@@@@........
    @@@@@@@@@...@@@@@@@@@@@@@@@@@.......
    @@@@@@@@@..@@@@......@@@@@@@@@......
    @@@@@@@@@.@@@@........@@@@@@@@@.....
    @@@@@@@@@.@@@..........@@@@@@@@.....
    @@@@@@@@@@@@............@@@@@@@@....
    @@@@@@@@@@@@............@@@@@@@@....
    @@@@@@@@@@@..............@@@@@@@@...
    @@@@@@@@@@...............@@@@@@@@...
    @@@@@@@@@@................@@@@@@@...
    @@@@@@@@@.................@@@@@@@@..
    @@@@@@@@@.................@@@@@@@@..
    @@@@@@@@@.................@@@@@@@@..
    @@@@@@@@@.................@@@@@@@@..
    @@@@@@@@@.................@@@@@@@@..
    @@@@@@@@@..................@@@@@@@..
    @@@@@@@@@..................@@@@@@@@.
    @@@@@@@@@..................@@@@@@@@.
    @@@@@@@@@..................@@@@@@@@.
    @@@@@@@@@..................@@@@@@@@.
    @@@@@@@@@..................@@@@@@@@.
    @@@@@@@@@..................@@@@@@@@.
    @@@@@@@@@..................@@@@@@@@.
    @@@@@@@@@..................@@@@@@@@.
    @@@@@@@@@..................@@@@@@@@.
    @@@@@@@@@..................@@@@@@@@.
    @@@@@@@@@..................@@@@@@@@.
    @@@@@@@@@..................@@@@@@@@.
    .@@@@@@@@..................@@@@@@@@.
    .@@@@@@@@..................@@@@@@@@.
    .@@@@@@@@..................@@@@@@@@.
    .@@@@@@@@..................@@@@@@@@.
    .@@@@@@@@..................@@@@@@@@.
    ..@@@@@@@..................@@@@@@@..
    ..@@@@@@@@................@@@@@@@@..
    ..@@@@@@@@................@@@@@@@@..
    ..@@@@@@@@................@@@@@@@@..
    ...@@@@@@@................@@@@@@@...
    ...@@@@@@@................@@@@@@@...
    ...@@@@@@@................@@@@@@@...
    ....@@@@@@@..............@@@@@@@....
    ....@@@@@@@..............@@@@@@@....
    .....@@@@@@..............@@@@@@.....
    .....@@@@@@@............@@@@@@@.....
    ......@@@@@@............@@@@@@......
    ......@@@@@@@..........@@@@@@@......
    .......@@@@@@..........@@@@@@.......
    ........@@@@@@........@@@@@@........
    ........@@@@@@@......@@@@@@@........
    .........@@@@@@@....@@@@@@@.........
    ..........@@@@@@@@@@@@@@@@..........
    ...........@@@@@@@@@@@@@@...........
    .............@@@@@@@@@@.............
    ...............@@@@@@...............
    ....................................
    ....................................
    ....................................
    ....................................
    ....................................
    ....................................
    ....................................
    ....................................
    ....................................
    ....................................
    ....................................
    ....................................
    ....................................
    ....................................
    ....................................
    ....................................
    ....................................
    ....................................
    ....................................
    ....................................
    ....................................
    ....................................
    ....................................
    ....................................
    ....................................
    ....................................
    ....................................
    ....................................
    ....................................
    ....................................



# DIGIT SEVEN
0x37:
u+0037:
    .....................................
    .....................................
    .....................................
    .....................................
    .....................................
    .....................................
    .....................................
    ....@@@@@@@@@@@@@@@@@@@@@@@@@@@@@@@@.
    ....@@@@@@@@@@@@@@@@@@@@@@@@@@@@@@@..
    ....@@@@@@@@@@@@@@@@@@@@@@@@@@@@@@@..
    ....@@@@@@@@@@@@@@@@@@@@@@@@@@@@@@@..
    ...@@@@@@@@@@@@@@@@@@@@@@@@@@@@@@@...
    ...@@@@@@@@@@@@@@@@@@@@@@@@@@@@@@@...
    ...@@@@@@@@@@@@@@@@@@@@@@@@@@@@@@@...
    ...@@@@@@@@@@@@@@@@@@@@@@@@@@@@@@....
    ..@@@@@@@@@@@@@@@@@@@@@@@@@@@@@@@....
    ..@@@@@@@@@@@@@@@@@@@@@@@@@@@@@@@....
    ..@@@@@@@@@@@@@@@@@@@@@@@@@@@@@@.....
    ..@@@@@@@@@@@@@@@@@@@@@@@@@@@@@@.....
    .@@@@@@@@@@@@@@@@@@@@@@@@@@@@@@@.....
    .@@@@@@@@@@@@@@@@@@@@@@@@@@@@@@@.....
    .@@@@.......................@@@......
    .@@@........................@@@......
    @@@........................@@@@......
    @@.........................@@@.......
    ...........................@@@.......
    ..........................@@@@.......
    ..........................@@@@.......
    ..........................@@@........
    .........................@@@@........
    .........................@@@@........
    ........................@@@@@........
    ........................@@@@.........
    ........................@@@@.........
    .......................@@@@@.........
    .......................@@@@@.........
    .......................@@@@@.........
    ......................@@@@@..........
    ......................@@@@@..........
    ......................@@@@@..........
    .....................@@@@@@..........
    .....................@@@@@@..........
    .....................@@@@@...........
    .....................@@@@@...........
    ....................@@@@@@...........
    ....................@@@@@@...........
    ....................@@@@@@...........
    ....................@@@@@............
    ...................@@@@@@............
    ...................@@@@@@............
    ...................@@@@@@............
    ...................@@@@@@............
    ..................@@@@@@@............
    ..................@@@@@@@............
    ..................@@@@@@.............
    ..................@@@@@@.............
    .................@@@@@@@.............
    .................@@@@@@@.............
    .................@@@@@@@.............
    .................@@@@@@@.............
    .................@@@@@@@.............
    ................@@@@@@@@.............
    ................@@@@@@@@.............
    ................@@@@@@@@.............
    ................@@@@@@@..............
    ................@@@@@@@..............
    ................@@@@@@@..............
    ...............@@@@@@@@..............
    ...............@@@@@@@@..............
    ...............@@@@@@@...............
    ...............@@@@@@@...............
    ...............@@@@@@@...............
    ...............@@@@@@@...............
    ..............@@@@@@@@...............
    ..............@@@@@@@@...............
    ..............@@@@@@@@...............
    ..............@@@@@@@@...............
    ..............@@@@@@@@...............
    ..............@@@@@@@@...............
    ..............@@@@@@@@...............
    ..............@@@@@@@@...............
    .............@@@@@@@@@...............
    .............@@@@@@@@@...............
    .............@@@@@@@@@...............
    .............@@@@@@@@@...............
    .............@@@@@@@@@...............
    .............@@@@@@@@@...............
    .............@@@@@@@@@...............
    ............@@@@@@@@@@...............
    ............@@@@@@@@@@...............
    ............@@@@@@@@@@...............
    ............@@@@@@@@@@...............
    ............@@@@@@@@@@...............
    ............@@@@@@@@@@...............
    ............@@@@@@@@@@...............
    ............@@@@@@@@@@...............
    ............@@@@@@@@@@...............
    ............@@@@@@@@@@...............
    .....................................
    .....................................
    .....................................
    .....................................
    .....................................
    .....................................
    .....................................
    .....................................
    .....................................
    .....................................
    .....................................
    .....................................
    .....................................
    .....................................
    .....................................
    .....................................
    .....................................
    .....................................
    .....................................
    .....................................
    .....................................
    .....................................
    .....................................
    .....................................
    .....................................
    .....................................
    .....................................
    .....................................
    .....................................
    .....................................



# DIGIT EIGHT
0x38:
u+0038:
    .....................................
    .....................................
    .....................................
    .....................................
    .....................................
    .....................................
    .....................................
    ...............@@@@@@@...............
    ............@@@@@@@@@@@@.............
    ...........@@@@@@@@@@@@@@@...........
    ..........@@@@@@@@@@@@@@@@@..........
    .........@@@@@@@@....@@@@@@@.........
    ........@@@@@@@@......@@@@@@@........
    .......@@@@@@@@........@@@@@@........
    .......@@@@@@@..........@@@@@@.......
    ......@@@@@@@............@@@@@.......
    ......@@@@@@@............@@@@@@......
    .....@@@@@@@.............@@@@@@......
    .....@@@@@@@..............@@@@@@.....
    .....@@@@@@@..............@@@@@@.....
    ....@@@@@@@...............@@@@@@.....
    ....@@@@@@@...............@@@@@@.....
    ....@@@@@@@................@@@@@@....
    ....@@@@@@@................@@@@@@....
    ...@@@@@@@@................@@@@@@....
    ...@@@@@@@@................@@@@@@....
    ...@@@@@@@@................@@@@@@....
    ...@@@@@@@@................@@@@@@....
    ...@@@@@@@@................@@@@@@....
    ...@@@@@@@@................@@@@@@....
    ...@@@@@@@@................@@@@@@....
    ...@@@@@@@@................@@@@@@....
    ...@@@@@@@@@...............@@@@@.....
    ...@@@@@@@@@...............@@@@@.....
    ...@@@@@@@@@@..............@@@@@.....
    ...@@@@@@@@@@.............@@@@@......
    ....@@@@@@@@@@............@@@@@......
    ....@@@@@@@@@@............@@@@@......
    ....@@@@@@@@@@@..........@@@@@.......
    ....@@@@@@@@@@@@.........@@@@@.......
    .....@@@@@@@@@@@@........@@@@........
    .....@@@@@@@@@@@@@@.....@@@@@........
    ......@@@@@@@@@@@@@@...@@@@@.........
    ......@@@@@@@@@@@@@@@.@@@@@..........
    .......@@@@@@@@@@@@@@@@@@@...........
    .......@@@@@@@@@@@@@@@@@@@...........
    ........@@@@@@@@@@@@@@@@@@...........
    ........@@@@@@@@@@@@@@@@@@@..........
    .........@@@@@@@@@@@@@@@@@@@.........
    ..........@@@@@@@@@@@@@@@@@@@........
    ..........@@@@@@@@@@@@@@@@@@@@.......
    .........@@@@@@@@@@@@@@@@@@@@@.......
    ........@@@@@@@@@@@@@@@@@@@@@@@......
    .......@@@@@..@@@@@@@@@@@@@@@@@......
    ......@@@@@....@@@@@@@@@@@@@@@@@.....
    .....@@@@@@.....@@@@@@@@@@@@@@@@.....
    ....@@@@@@........@@@@@@@@@@@@@@@....
    ....@@@@@@.........@@@@@@@@@@@@@@....
    ...@@@@@@............@@@@@@@@@@@@@...
    ...@@@@@@.............@@@@@@@@@@@@...
    ..@@@@@@@..............@@@@@@@@@@@...
    ..@@@@@@................@@@@@@@@@@@..
    ..@@@@@@................@@@@@@@@@@@..
    .@@@@@@@.................@@@@@@@@@@..
    .@@@@@@@.................@@@@@@@@@@..
    .@@@@@@...................@@@@@@@@@@.
    .@@@@@@...................@@@@@@@@@@.
    @@@@@@@...................@@@@@@@@@@.
    @@@@@@@....................@@@@@@@@@.
    @@@@@@@....................@@@@@@@@@.
    @@@@@@@....................@@@@@@@@@.
    @@@@@@@....................@@@@@@@@@.
    @@@@@@@....................@@@@@@@@@.
    @@@@@@@....................@@@@@@@@@.
    @@@@@@@....................@@@@@@@@@.
    @@@@@@@....................@@@@@@@@@.
    @@@@@@@....................@@@@@@@@@.
    @@@@@@@....................@@@@@@@@@.
    @@@@@@@....................@@@@@@@@@.
    @@@@@@@....................@@@@@@@@@.
    .@@@@@@....................@@@@@@@@..
    .@@@@@@@...................@@@@@@@@..
    .@@@@@@@..................@@@@@@@@@..
    .@@@@@@@..................@@@@@@@@@..
    ..@@@@@@@.................@@@@@@@@...
    ..@@@@@@@................@@@@@@@@@...
    ...@@@@@@................@@@@@@@@....
    ...@@@@@@@...............@@@@@@@@....
    ....@@@@@@..............@@@@@@@@.....
    ....@@@@@@@............@@@@@@@@@.....
    .....@@@@@@............@@@@@@@@......
    .....@@@@@@@..........@@@@@@@@@......
    ......@@@@@@@........@@@@@@@@@.......
    .......@@@@@@@@....@@@@@@@@@@........
    ........@@@@@@@@@@@@@@@@@@@@.........
    .........@@@@@@@@@@@@@@@@@@..........
    ..........@@@@@@@@@@@@@@@@...........
    ...........@@@@@@@@@@@@@@............
    .....................................
    .....................................
    .....................................
    .....................................
    .....................................
    .....................................
    .....................................
    .....................................
    .....................................
    .....................................
    .....................................
    .....................................
    .....................................
    .....................................
    .....................................
    .....................................
    .....................................
    .....................................
    .....................................
    .....................................
    .....................................
    .....................................
    .....................................
    .....................................
    .....................................
    .....................................
    .....................................
    .....................................
    .....................................
    .....................................



# DIGIT NINE
0x39:
u+0039:
    ....................................
    ....................................
    ....................................
    ....................................
    ....................................
    ....................................
    ....................................
    ..............@@@@@@................
    ............@@@@@@@@@@..............
    ..........@@@@@@@@@@@@@@............
    .........@@@@@@@@@@@@@@@@...........
    ........@@@@@@@....@@@@@@@..........
    .......@@@@@@@......@@@@@@@.........
    .......@@@@@@........@@@@@@.........
    ......@@@@@@..........@@@@@@........
    .....@@@@@@@..........@@@@@@@.......
    .....@@@@@@............@@@@@@.......
    ....@@@@@@@............@@@@@@@......
    ....@@@@@@..............@@@@@@......
    ...@@@@@@@..............@@@@@@@.....
    ...@@@@@@...............@@@@@@@.....
    ..@@@@@@@................@@@@@@@....
    ..@@@@@@@................@@@@@@@....
    ..@@@@@@@................@@@@@@@....
    .@@@@@@@@................@@@@@@@@...
    .@@@@@@@@................@@@@@@@@...
    .@@@@@@@@................@@@@@@@@...
    .@@@@@@@..................@@@@@@@...
    @@@@@@@@..................@@@@@@@@..
    @@@@@@@@..................@@@@@@@@..
    @@@@@@@@..................@@@@@@@@..
    @@@@@@@@..................@@@@@@@@..
    @@@@@@@@..................@@@@@@@@..
    @@@@@@@@..................@@@@@@@@@.
    @@@@@@@@..................@@@@@@@@@.
    @@@@@@@@..................@@@@@@@@@.
    @@@@@@@@..................@@@@@@@@@.
    @@@@@@@@..................@@@@@@@@@.
    @@@@@@@@..................@@@@@@@@@.
    @@@@@@@@..................@@@@@@@@@.
    @@@@@@@@..................@@@@@@@@@.
    @@@@@@@@..................@@@@@@@@@.
    @@@@@@@@..................@@@@@@@@@.
    @@@@@@@@..................@@@@@@@@@.
    @@@@@@@@..................@@@@@@@@@.
    .@@@@@@@@.................@@@@@@@@@.
    .@@@@@@@@.................@@@@@@@@@.
    .@@@@@@@@.................@@@@@@@@@.
    .@@@@@@@@.................@@@@@@@@@.
    .@@@@@@@@.................@@@@@@@@@.
    .@@@@@@@@.................@@@@@@@@@.
    ..@@@@@@@@...............@@@@@@@@@@.
    ..@@@@@@@@...............@@@@@@@@@@.
    ..@@@@@@@@..............@@@@@@@@@@@.
    ...@@@@@@@@............@@@@@@@@@@@@.
    ...@@@@@@@@............@@@@@@@@@@@@.
    ....@@@@@@@@..........@@@.@@@@@@@@@.
    ....@@@@@@@@@........@@@@.@@@@@@@@@.
    .....@@@@@@@@@......@@@@..@@@@@@@@@.
    ......@@@@@@@@@@@@@@@@@...@@@@@@@@@.
    .......@@@@@@@@@@@@@@@....@@@@@@@@@.
    ........@@@@@@@@@@@@@.....@@@@@@@@@.
    ..........@@@@@@@@@@......@@@@@@@@@.
    ...........@@@@@@@........@@@@@@@@@.
    ..........................@@@@@@@@@.
    ..........................@@@@@@@@@.
    ..........................@@@@@@@@@.
    ..........................@@@@@@@@@.
    ..........................@@@@@@@@@.
    ..........................@@@@@@@@@.
    ..........................@@@@@@@@@.
    ..........................@@@@@@@@@.
    ..........................@@@@@@@@..
    ..........................@@@@@@@@..
    ..........................@@@@@@@@..
    ..........................@@@@@@@@..
    ..........................@@@@@@@@..
    ..........................@@@@@@@...
    .........................@@@@@@@@...
    .........................@@@@@@@@...
    .........................@@@@@@@@...
    .........................@@@@@@@....
    .........................@@@@@@@....
    .........................@@@@@@@....
    ........................@@@@@@@.....
    ........................@@@@@@@.....
    ........................@@@@@@......
    .......................@@@@@@@......
    .......................@@@@@@.......
    ....@@................@@@@@@@.......
    ...@@@@...............@@@@@@........
    ..@@@@@@.............@@@@@@.........
    ...@@@@@@@..........@@@@@@@.........
    ....@@@@@@.........@@@@@@@..........
    .....@@@@@@@@@@@@@@@@@@@@...........
    .......@@@@@@@@@@@@@@@@@............
    ........@@@@@@@@@@@@@@..............
    ..........@@@@@@@@@@................
    ....................................
    ....................................
    ....................................
    ....................................
    ....................................
    ....................................
    ....................................
    ....................................
    ....................................
    ....................................
    ....................................
    ....................................
    ....................................
    ....................................
    ....................................
    ....................................
    ....................................
    ....................................
    ....................................
    ....................................
    ....................................
    ....................................
    ....................................
    ....................................
    ....................................
    ....................................
    ....................................
    ....................................
    ....................................
    ....................................



# COLON
0x3a:
u+003a:
    ...........
    ...........
    ...........
    ...........
    ...........
    ...........
    ...........
    ...........
    ...........
    ...........
    ...........
    ...........
    ...........
    ...........
    ...........
    ...........
    ...........
    ...........
    ...........
    ...........
    ...........
    ...........
    ...........
    ...........
    ...........
    ...........
    ...........
    ...........
    ...........
    ...........
    ...........
    ...........
    ...........
    ...........
    ...........
    ...........
    ...........
    ...........
    ...........
    ...........
    ...........
    ...........
    ...........
    ...........
    ...@@@.....
    ..@@@@@....
    .@@@@@@@...
    .@@@@@@@...
    @@@@@@@@@..
    @@@@@@@@@..
    @@@@@@@@@..
    @@@@@@@@@..
    @@@@@@@@@..
    @@@@@@@@@..
    .@@@@@@@...
    .@@@@@@@...
    ..@@@@@....
    ...@@@.....
    ...........
    ...........
    ...........
    ...........
    ...........
    ...........
    ...........
    ...........
    ...........
    ...........
    ...........
    ...........
    ...........
    ...........
    ...........
    ...........
    ...........
    ...........
    ...........
    ...........
    ...........
    ...........
    ...........
    ...........
    ...........
    ...........
    ...@@@.....
    ..@@@@@....
    .@@@@@@@...
    .@@@@@@@...
    @@@@@@@@@..
    @@@@@@@@@..
    @@@@@@@@@..
    @@@@@@@@@..
    @@@@@@@@@..
    @@@@@@@@@..
    .@@@@@@@...
    .@@@@@@@...
    ..@@@@@....
    ...@@@.....
    ...........
    ...........
    ...........
    ...........
    ...........
    ...........
    ...........
    ...........
    ...........
    ...........
    ...........
    ...........
    ...........
    ...........
    ...........
    ...........
    ...........
    ...........
    ...........
    ...........
    ...........
    ...........
    ...........
    ...........
    ...........
    ...........
    ...........
    ...........
    ...........
    ...........



# SEMICOLON
0x3b:
u+003b:
    ...........
    ...........
    ...........
    ...........
    ...........
    ...........
    ...........
    ...........
    ...........
    ...........
    ...........
    ...........
    ...........
    ...........
    ...........
    ...........
    ...........
    ...........
    ...........
    ...........
    ...........
    ...........
    ...........
    ...........
    ...........
    ...........
    ...........
    ...........
    ...........
    ...........
    ...........
    ...........
    ...........
    ...........
    ...........
    ...........
    ...........
    ...........
    ...........
    ...........
    ...........
    ...........
    ...........
    ...........
    ...@@@.....
    ..@@@@@....
    .@@@@@@@...
    .@@@@@@@...
    @@@@@@@@@..
    @@@@@@@@@..
    @@@@@@@@@..
    @@@@@@@@@..
    @@@@@@@@@..
    @@@@@@@@@..
    .@@@@@@@...
    .@@@@@@@...
    ..@@@@@....
    ...@@@.....
    ...........
    ...........
    ...........
    ...........
    ...........
    ...........
    ...........
    ...........
    ...........
    ...........
    ...........
    ...........
    ...........
    ...........
    ...........
    ...........
    ...........
    ...........
    ...........
    ...........
    ...........
    ...........
    ...........
    ...........
    ...........
    ...........
    ...@@@.....
    ..@@@@@....
    .@@@@@@@...
    .@@@@@@@...
    @@@@@@@@@..
    @@@@@@@@@..
    @@@@@@@@@..
    @@@@@@@@@..
    @@@@@@@@@..
    @@@@@@@@@..
    .@@@@@@@@..
    .@@@@@@@@..
    ..@@@@@@@..
    ...@@@@@...
    ....@@@@...
    ....@@@@...
    .....@@@...
    .....@@....
    .....@@....
    .....@@....
    .....@.....
    .....@.....
    ....@......
    ....@......
    ...........
    ...........
    ...........
    ...........
    ...........
    ...........
    ...........
    ...........
    ...........
    ...........
    ...........
    ...........
    ...........
    ...........
    ...........
    ...........
    ...........
    ...........
    ...........
    ...........



# EQUALS SIGN
0x3d:
u+003d:
    .........................
    .........................
    .........................
    .........................
    .........................
    .........................
    .........................
    .........................
    .........................
    .........................
    .........................
    .........................
    .........................
    .........................
    .........................
    .........................
    .........................
    .........................
    .........................
    .........................
    .........................
    .........................
    .........................
    .........................
    .........................
    .........................
    .........................
    .........................
    .........................
    .........................
    .........................
    .........................
    .........................
    .........................
    .........................
    .........................
    .........................
    .........................
    .........................
    .........................
    .........................
    .........................
    .........................
    .........................
    .........................
    .........................
    .........................
    .........................
    .........................
    .........................
    .........................
    .........................
    .........................
    .........................
    .........................
    .........................
    .........................
    .........................
    .........................
    .........................
    .........................
    @@@@@@@@@@@@@@@@@@@@@@@@.
    @@@@@@@@@@@@@@@@@@@@@@@@.
    @@@@@@@@@@@@@@@@@@@@@@@@.
    @@@@@@@@@@@@@@@@@@@@@@@@.
    .........................
    .........................
    .........................
    .........................
    .........................
    .........................
    @@@@@@@@@@@@@@@@@@@@@@@@.
    @@@@@@@@@@@@@@@@@@@@@@@@.
    @@@@@@@@@@@@@@@@@@@@@@@@.
    @@@@@@@@@@@@@@@@@@@@@@@@.
    .........................
    .........................
    .........................
    .........................
    .........................
    .........................
    .........................
    .........................
    .........................
    .........................
    .........................
    .........................
    .........................
    .........................
    .........................
    .........................
    .........................
    .........................
    .........................
    .........................
    .........................
    .........................
    .........................
    .........................
    .........................
    .........................
    .........................
    .........................
    .........................
    .........................
    .........................
    .........................
    .........................
    .........................
    .........................
    .........................
    .........................
    .........................
    .........................
    .........................
    .........................
    .........................
    .........................
    .........................
    .........................
    .........................
    .........................
    .........................
    .........................
    .........................
    .........................
    .........................
    .........................



# QUESTION MARK
0x3f:
u+003f:
    ................................
    ................................
    ................................
    ................................
    ................................
    ................................
    ................................
    ............@@@@@@@@............
    ..........@@@@@@@@@@@@..........
    ........@@@@@@@@@@@@@@@.........
    .......@@@@@@@@@@@@@@@@@........
    ......@@@@@.....@@@@@@@@@.......
    .....@@@@@.......@@@@@@@@@......
    ....@@@@@.........@@@@@@@@......
    ...@@@@@...........@@@@@@@@.....
    ...@@@@@...........@@@@@@@@.....
    ..@@@@@.............@@@@@@@@....
    ..@@@@@.............@@@@@@@@....
    .@@@@@...............@@@@@@@@...
    .@@@@@...............@@@@@@@@...
    .@@@@@...............@@@@@@@@...
    .@@@@@...............@@@@@@@@...
    @@@@@@................@@@@@@@@..
    @@@@@@@...............@@@@@@@@..
    @@@@@@@...............@@@@@@@@..
    @@@@@@@...............@@@@@@@@..
    @@@@@@@...............@@@@@@@@..
    @@@@@@@...............@@@@@@@@..
    @@@@@@@...............@@@@@@@@..
    .@@@@@................@@@@@@@@..
    .@@@@@................@@@@@@@@..
    ..@@@.................@@@@@@@@..
    ......................@@@@@@@@..
    ......................@@@@@@@@..
    ......................@@@@@@@@..
    .....................@@@@@@@@@..
    .....................@@@@@@@@...
    .....................@@@@@@@@...
    .....................@@@@@@@@...
    ....................@@@@@@@@@...
    ....................@@@@@@@@....
    ...................@@@@@@@@@....
    ...................@@@@@@@@.....
    ..................@@@@@@@@@.....
    ..................@@@@@@@@......
    .................@@@@@@@@@......
    .................@@@@@@@@.......
    ................@@@@@@@@........
    ................@@@@@@@.........
    ...............@@@@@@@@.........
    ...............@@@@@@@..........
    ..............@@@@@@@...........
    ..............@@@@@@............
    .............@@@@@@.............
    .............@@@@@..............
    .............@@@@...............
    ............@@@@@...............
    ............@@@@@...............
    ............@@@@................
    ...........@@@@@................
    ...........@@@@@................
    ...........@@@@@................
    ..........@@@@@@................
    ..........@@@@@@................
    ..........@@@@@@................
    ..........@@@@@@@...............
    .........@@@@@@@@...............
    .........@@@@@@@@...............
    .........@@@@@@@@@..............
    .........@@@@@@@@@..............
    .........@@@@@@@@@..............
    ..........@@@@@@@@..............
    ..........@@@@@@@@..............
    ..........@@@@@@@...............
    ...........@@@@@@...............
    ............@@@@................
    ................................
    ................................
    ................................
    ................................
    ................................
    ................................
    ................................
    ................................
    ............@@@.................
    ...........@@@@@................
    ..........@@@@@@@...............
    ..........@@@@@@@...............
    .........@@@@@@@@@..............
    .........@@@@@@@@@..............
    .........@@@@@@@@@..............
    .........@@@@@@@@@..............
    .........@@@@@@@@@..............
    .........@@@@@@@@@..............
    ..........@@@@@@@...............
    ..........@@@@@@@...............
    ...........@@@@@................
    ............@@@.................
    ................................
    ................................
    ................................
    ................................
    ................................
    ................................
    ................................
    ................................
    ................................
    ................................
    ................................
    ................................
    ................................
    ................................
    ................................
    ................................
    ................................
    ................................
    ................................
    ................................
    ................................
    ................................
    ................................
    ................................
    ................................
    ................................
    ................................
    ................................
    ................................
    ................................



# COMMERCIAL AT
0x40:
u+0040:
    ....................................
    ....................................
    ....................................
    ....................................
    ....................................
    ....................................
    ....................................
    ....................................
    ....................................
    ....................................
    ....................................
    ....................................
    ....................................
    ....................................
    ....................................
    ....................................
    ....................................
    ....................................
    ....................................
    ....................................
    ....................................
    ....................................
    ....................................
    ....................................
    ....................................
    ....................................
    ....................................
    ....................................
    ....................................
    ....................................
    ....................................
    ....................................
    ....................................
    ....................................
    ..............@@@@@@@@@.............
    ...........@@@@@@@@@@@@@@...........
    .........@@@@@@@@@@@@@@@@@@.........
    ........@@@@@@@@@@@@@@@@@@@@........
    .......@@@@@@...........@@@@@.......
    .......@@@@..............@@@@@......
    ......@@@@................@@@@......
    .....@@@@..................@@@@.....
    ....@@@@@...................@@@.....
    ....@@@@.....................@@@....
    ....@@@......................@@@....
    ....@@@.......................@@....
    ...@@@@.......................@@@...
    ...@@@........................@@@...
    ...@@@.........................@@...
    ..@@@..........@@@@@@@@@.......@@@..
    ..@@@........@@@@@@@@@@@.......@@@..
    ..@@@......@@@@@@@@@@@@@.......@@@..
    ..@@......@@@@@@@@@@@@@@........@@@.
    .@@@......@@@@.......@@@........@@@.
    .@@@.....@@@@........@@@........@@@.
    .@@@.....@@@.........@@@........@@@.
    .@@@.....@@@.........@@@........@@@.
    .@@@....@@@..........@@@........@@@.
    @@@.....@@@..........@@@........@@@.
    @@@.....@@@..........@@@........@@@.
    @@@.....@@@..........@@@........@@@.
    @@@.....@@@..........@@@........@@@.
    @@@.....@@@..........@@@........@@@.
    @@@.....@@@..........@@@........@@@.
    @@@.....@@@..........@@@........@@@.
    @@@.....@@@..........@@@........@@@.
    @@@.....@@@..........@@@........@@@.
    @@@.....@@@..........@@@........@@@.
    @@@.....@@@..........@@@........@@..
    @@@......@@@.........@@@........@@..
    @@@@.....@@@.........@@@.......@@@..
    @@@@.....@@@@.......@@@@.......@@@..
    @@@@.....@@@@@.....@@@@@@.....@@@...
    .@@@......@@@@@...@@@@@@@@....@@@...
    .@@@......@@@@@@@@@@@@.@@@@@@@@@....
    .@@@.......@@@@@@@@@@..@@@@@@@@@....
    .@@@@......@@@@@@@@@@....@@@@@@.....
    .@@@@........@@@@@@.......@@@@......
    ..@@@...............................
    ..@@@...............................
    ..@@@@..............................
    ...@@@.........................@....
    ...@@@@.....................@@@.....
    ....@@@....................@@@@.....
    ....@@@@..................@@@@......
    .....@@@@................@@@@.......
    ......@@@@..............@@@@........
    .......@@@@...........@@@@@.........
    ........@@@@@@.....@@@@@@@..........
    .........@@@@@@@@@@@@@@@@...........
    ..........@@@@@@@@@@@@@@............
    ...........@@@@@@@@@@@..............
    ..............@@@@@.................
    ....................................
    ....................................
    ....................................
    ....................................
    ....................................
    ....................................
    ....................................
    ....................................
    ....................................
    ....................................
    ....................................
    ....................................
    ....................................
    ....................................
    ....................................
    ....................................
    ....................................
    ....................................
    ....................................
    ....................................
    ....................................
    ....................................
    ....................................
    ....................................
    ....................................
    ....................................
    ....................................
    ....................................
    ....................................
    ....................................
    ....................................
    ....................................
    ....................................
    ....................................
    ....................................



# LATIN CAPITAL LETTER A
0x41:
u+0041:
    ........................................................
    ........................................................
    ........................................................
    ........................................................
    ........................................................
    ........................................................
    ........................................................
    ...........................@............................
    ...........................@............................
    ..........................@@@...........................
    ..........................@@@...........................
    ..........................@@@...........................
    ..........................@@@...........................
    .........................@@@@@..........................
    .........................@@@@@..........................
    .........................@@@@@..........................
    .........................@@@@@..........................
    ........................@@@@@@@.........................
    ........................@@@@@@@.........................
    ........................@@@@@@@.........................
    ........................@@@@@@@.........................
    .......................@@@@@@@@@........................
    .......................@@@@@@@@@........................
    .......................@@@@@@@@@........................
    .......................@@@@@@@@@........................
    ......................@@@@@@@@@@@.......................
    ......................@@@@@@@@@@@.......................
    ......................@@@@@@@@@@@.......................
    .....................@@@@@@@@@@@@.......................
    .....................@@@@@@@@@@@@@......................
    .....................@@@@@@@@@@@@@......................
    .....................@@@@@@@@@@@@@......................
    ....................@@@@.@@@@@@@@@......................
    ....................@@@..@@@@@@@@@@.....................
    ....................@@@..@@@@@@@@@@.....................
    ....................@@@...@@@@@@@@@.....................
    ...................@@@@...@@@@@@@@@@....................
    ...................@@@....@@@@@@@@@@....................
    ...................@@@....@@@@@@@@@@....................
    ...................@@@.....@@@@@@@@@....................
    ..................@@@@.....@@@@@@@@@@...................
    ..................@@@......@@@@@@@@@@...................
    ..................@@@......@@@@@@@@@@...................
    ..................@@@.......@@@@@@@@@...................
    .................@@@@.......@@@@@@@@@@..................
    .................@@@........@@@@@@@@@@..................
    .................@@@........@@@@@@@@@@..................
    .................@@@.........@@@@@@@@@..................
    ................@@@@.........@@@@@@@@@@.................
    ................@@@..........@@@@@@@@@@.................
    ................@@@..........@@@@@@@@@@.................
    ................@@@...........@@@@@@@@@@................
    ...............@@@@...........@@@@@@@@@@................
    ...............@@@............@@@@@@@@@@................
    ...............@@@............@@@@@@@@@@................
    ...............@@@.............@@@@@@@@@@...............
    ..............@@@..............@@@@@@@@@@...............
    ..............@@@..............@@@@@@@@@@...............
    ..............@@@...............@@@@@@@@@...............
    ..............@@@...............@@@@@@@@@@..............
    .............@@@................@@@@@@@@@@..............
    .............@@@................@@@@@@@@@@..............
    .............@@@.................@@@@@@@@@..............
    ............@@@@.................@@@@@@@@@@.............
    ............@@@..................@@@@@@@@@@.............
    ............@@@..................@@@@@@@@@@.............
    ............@@@@@@@@@@@@@@@@@@@@@@@@@@@@@@@.............
    ...........@@@@@@@@@@@@@@@@@@@@@@@@@@@@@@@@@............
    ...........@@@@@@@@@@@@@@@@@@@@@@@@@@@@@@@@@............
    ...........@@@@@@@@@@@@@@@@@@@@@@@@@@@@@@@@@............
    ...........@@@.....................@@@@@@@@@............
    ..........@@@@.....................@@@@@@@@@@...........
    ..........@@@......................@@@@@@@@@@...........
    ..........@@@......................@@@@@@@@@@...........
    ..........@@@.......................@@@@@@@@@@..........
    .........@@@@.......................@@@@@@@@@@..........
    .........@@@........................@@@@@@@@@@..........
    .........@@@........................@@@@@@@@@@..........
    .........@@@.........................@@@@@@@@@@.........
    ........@@@@.........................@@@@@@@@@@.........
    ........@@@..........................@@@@@@@@@@.........
    ........@@@..........................@@@@@@@@@@.........
    .......@@@@...........................@@@@@@@@@@........
    .......@@@@...........................@@@@@@@@@@........
    .......@@@............................@@@@@@@@@@........
    .......@@@............................@@@@@@@@@@........
    ......@@@@.............................@@@@@@@@@@.......
    ......@@@..............................@@@@@@@@@@.......
    ......@@@..............................@@@@@@@@@@.......
    ......@@@..............................@@@@@@@@@@.......
    .....@@@@...............................@@@@@@@@@@......
    .....@@@................................@@@@@@@@@@......
    .....@@@................................@@@@@@@@@@......
    ....@@@@................................@@@@@@@@@@@.....
    @@@@@@@@@@@@........................@@@@@@@@@@@@@@@@@@@.
    @@@@@@@@@@@@........................@@@@@@@@@@@@@@@@@@@.
    @@@@@@@@@@@@........................@@@@@@@@@@@@@@@@@@@.
    @@@@@@@@@@@@........................@@@@@@@@@@@@@@@@@@@.
    ........................................................
    ........................................................
    ........................................................
    ........................................................
    ........................................................
    ........................................................
    ........................................................
    ........................................................
    ........................................................
    ........................................................
    ........................................................
    ........................................................
    ........................................................
    ........................................................
    ........................................................
    ........................................................
    ........................................................
    ........................................................
    ........................................................
    ........................................................
    ........................................................
    ........................................................
    ........................................................
    ........................................................
    ........................................................
    ........................................................
    ........................................................
    ........................................................
    ........................................................
    ........................................................



# LATIN CAPITAL LETTER B
0x42:
u+0042:
    ............................................
    ............................................
    ............................................
    ............................................
    ............................................
    ............................................
    ............................................
    @@@@@@@@@@@@@@@@@@@@@@@@@@@@................
    @@@@@@@@@@@@@@@@@@@@@@@@@@@@@@@.............
    @@@@@@@@@@@@@@@@@@@@@@@@@@@@@@@@@...........
    @@@@@@@@@@@@@@@@@@@@@@@@@@@@@@@@@@..........
    ....@@@@@@@@@..........@@@@@@@@@@@@.........
    ....@@@@@@@@@.............@@@@@@@@@@........
    ....@@@@@@@@@...............@@@@@@@@@.......
    ....@@@@@@@@@................@@@@@@@@.......
    ....@@@@@@@@@................@@@@@@@@@......
    ....@@@@@@@@@.................@@@@@@@@......
    ....@@@@@@@@@..................@@@@@@@@.....
    ....@@@@@@@@@..................@@@@@@@@.....
    ....@@@@@@@@@...................@@@@@@@.....
    ....@@@@@@@@@...................@@@@@@@@....
    ....@@@@@@@@@...................@@@@@@@@....
    ....@@@@@@@@@....................@@@@@@@....
    ....@@@@@@@@@....................@@@@@@@@...
    ....@@@@@@@@@....................@@@@@@@@...
    ....@@@@@@@@@....................@@@@@@@@...
    ....@@@@@@@@@....................@@@@@@@@...
    ....@@@@@@@@@....................@@@@@@@@...
    ....@@@@@@@@@....................@@@@@@@@...
    ....@@@@@@@@@....................@@@@@@@@...
    ....@@@@@@@@@....................@@@@@@@@...
    ....@@@@@@@@@....................@@@@@@@@...
    ....@@@@@@@@@....................@@@@@@@....
    ....@@@@@@@@@...................@@@@@@@@....
    ....@@@@@@@@@...................@@@@@@@@....
    ....@@@@@@@@@...................@@@@@@@.....
    ....@@@@@@@@@..................@@@@@@@@.....
    ....@@@@@@@@@..................@@@@@@@@.....
    ....@@@@@@@@@.................@@@@@@@@......
    ....@@@@@@@@@................@@@@@@@@@......
    ....@@@@@@@@@................@@@@@@@@.......
    ....@@@@@@@@@...............@@@@@@@@@.......
    ....@@@@@@@@@.............@@@@@@@@@@........
    ....@@@@@@@@@..........@@@@@@@@@@@@.........
    ....@@@@@@@@@@@@@@@@@@@@@@@@@@@@@@..........
    ....@@@@@@@@@@@@@@@@@@@@@@@@@@@@@...........
    ....@@@@@@@@@@@@@@@@@@@@@@@@@@@@@...........
    ....@@@@@@@@@@@@@@@@@@@@@@@@@@@@@...........
    ....@@@@@@@@@...........@@@@@@@@@@..........
    ....@@@@@@@@@.............@@@@@@@@@.........
    ....@@@@@@@@@..............@@@@@@@@@........
    ....@@@@@@@@@...............@@@@@@@@@.......
    ....@@@@@@@@@................@@@@@@@@@......
    ....@@@@@@@@@.................@@@@@@@@@.....
    ....@@@@@@@@@..................@@@@@@@@.....
    ....@@@@@@@@@...................@@@@@@@@....
    ....@@@@@@@@@...................@@@@@@@@....
    ....@@@@@@@@@....................@@@@@@@@...
    ....@@@@@@@@@....................@@@@@@@@...
    ....@@@@@@@@@....................@@@@@@@@@..
    ....@@@@@@@@@.....................@@@@@@@@..
    ....@@@@@@@@@.....................@@@@@@@@..
    ....@@@@@@@@@.....................@@@@@@@@..
    ....@@@@@@@@@.....................@@@@@@@@@.
    ....@@@@@@@@@......................@@@@@@@@.
    ....@@@@@@@@@......................@@@@@@@@.
    ....@@@@@@@@@......................@@@@@@@@.
    ....@@@@@@@@@......................@@@@@@@@.
    ....@@@@@@@@@......................@@@@@@@@.
    ....@@@@@@@@@......................@@@@@@@@.
    ....@@@@@@@@@......................@@@@@@@@.
    ....@@@@@@@@@......................@@@@@@@@.
    ....@@@@@@@@@......................@@@@@@@@.
    ....@@@@@@@@@......................@@@@@@@@.
    ....@@@@@@@@@......................@@@@@@@@.
    ....@@@@@@@@@......................@@@@@@@@.
    ....@@@@@@@@@......................@@@@@@@@.
    ....@@@@@@@@@......................@@@@@@@@.
    ....@@@@@@@@@.....................@@@@@@@@@.
    ....@@@@@@@@@.....................@@@@@@@@..
    ....@@@@@@@@@.....................@@@@@@@@..
    ....@@@@@@@@@.....................@@@@@@@@..
    ....@@@@@@@@@....................@@@@@@@@@..
    ....@@@@@@@@@....................@@@@@@@@...
    ....@@@@@@@@@....................@@@@@@@@...
    ....@@@@@@@@@...................@@@@@@@@@...
    ....@@@@@@@@@...................@@@@@@@@....
    ....@@@@@@@@@..................@@@@@@@@@....
    ....@@@@@@@@@.................@@@@@@@@@.....
    ....@@@@@@@@@................@@@@@@@@@@.....
    ....@@@@@@@@@...............@@@@@@@@@@......
    ....@@@@@@@@@..............@@@@@@@@@@.......
    ....@@@@@@@@@.............@@@@@@@@@@........
    ....@@@@@@@@@...........@@@@@@@@@@@.........
    @@@@@@@@@@@@@@@@@@@@@@@@@@@@@@@@@@..........
    @@@@@@@@@@@@@@@@@@@@@@@@@@@@@@@@............
    @@@@@@@@@@@@@@@@@@@@@@@@@@@@@@..............
    @@@@@@@@@@@@@@@@@@@@@@@@@@@.................
    ............................................
    ............................................
    ............................................
    ............................................
    ............................................
    ............................................
    ............................................
    ............................................
    ............................................
    ............................................
    ............................................
    ............................................
    ............................................
    ............................................
    ............................................
    ............................................
    ............................................
    ............................................
    ............................................
    ............................................
    ............................................
    ............................................
    ............................................
    ............................................
    ............................................
    ............................................
    ............................................
    ............................................
    ............................................
    ............................................



# LATIN CAPITAL LETTER C
0x43:
u+0043:
    .......................................
    .......................................
    .......................................
    .......................................
    .......................................
    .......................................
    .......................................
    ..................@@@@@@@@.......@@@@..
    ................@@@@@@@@@@@@.....@@@@..
    ..............@@@@@@@@@@@@@@@....@@@@..
    .............@@@@@@@@@@@@@@@@@...@@@@..
    ............@@@@@@@@.....@@@@@@..@@@@..
    ...........@@@@@@@.........@@@@@.@@@@..
    ..........@@@@@@@...........@@@@@@@@@..
    ..........@@@@@@.............@@@@@@@@..
    .........@@@@@@..............@@@@@@@@..
    ........@@@@@@@...............@@@@@@@..
    ........@@@@@@................@@@@@@@..
    .......@@@@@@@.................@@@@@@..
    .......@@@@@@@.................@@@@@@..
    ......@@@@@@@..................@@@@@@..
    ......@@@@@@@...................@@@@@..
    .....@@@@@@@....................@@@@@..
    .....@@@@@@@....................@@@@@..
    ....@@@@@@@@....................@@@@@..
    ....@@@@@@@@...........................
    ....@@@@@@@............................
    ...@@@@@@@@............................
    ...@@@@@@@@............................
    ...@@@@@@@@............................
    ..@@@@@@@@@............................
    ..@@@@@@@@.............................
    ..@@@@@@@@.............................
    ..@@@@@@@@.............................
    .@@@@@@@@@.............................
    .@@@@@@@@@.............................
    .@@@@@@@@..............................
    .@@@@@@@@..............................
    .@@@@@@@@..............................
    .@@@@@@@@..............................
    @@@@@@@@@..............................
    @@@@@@@@@..............................
    @@@@@@@@@..............................
    @@@@@@@@@..............................
    @@@@@@@@@..............................
    @@@@@@@@@..............................
    @@@@@@@@@..............................
    @@@@@@@@@..............................
    @@@@@@@@@..............................
    @@@@@@@@@..............................
    @@@@@@@@@..............................
    @@@@@@@@@..............................
    @@@@@@@@@..............................
    @@@@@@@@@..............................
    @@@@@@@@@..............................
    @@@@@@@@@..............................
    @@@@@@@@@..............................
    @@@@@@@@@..............................
    @@@@@@@@@..............................
    @@@@@@@@@..............................
    @@@@@@@@@..............................
    @@@@@@@@@..............................
    @@@@@@@@@..............................
    @@@@@@@@@..............................
    @@@@@@@@@..............................
    .@@@@@@@@@.............................
    .@@@@@@@@@.............................
    .@@@@@@@@@.............................
    .@@@@@@@@@.............................
    .@@@@@@@@@.............................
    .@@@@@@@@@.............................
    ..@@@@@@@@@............................
    ..@@@@@@@@@............................
    ..@@@@@@@@@............................
    ..@@@@@@@@@............................
    ...@@@@@@@@@........................@..
    ...@@@@@@@@@........................@@.
    ...@@@@@@@@@........................@..
    ....@@@@@@@@@......................@@..
    ....@@@@@@@@@......................@@..
    ....@@@@@@@@@......................@...
    .....@@@@@@@@@....................@@...
    .....@@@@@@@@@....................@@...
    ......@@@@@@@@...................@@....
    ......@@@@@@@@@..................@@....
    .......@@@@@@@@.................@@.....
    .......@@@@@@@@@................@@.....
    ........@@@@@@@@@..............@@......
    ........@@@@@@@@@..............@@......
    .........@@@@@@@@@............@@.......
    ..........@@@@@@@@@..........@@@.......
    ..........@@@@@@@@@@.......@@@@........
    ...........@@@@@@@@@@@....@@@@@........
    ............@@@@@@@@@@@@@@@@@@.........
    .............@@@@@@@@@@@@@@@@..........
    ..............@@@@@@@@@@@@@@...........
    ................@@@@@@@@@@.............
    ..................@@@@@@@..............
    .......................................
    .......................................
    .......................................
    .......................................
    .......................................
    .......................................
    .......................................
    .......................................
    .......................................
    .......................................
    .......................................
    .......................................
    .......................................
    .......................................
    .......................................
    .......................................
    .......................................
    .......................................
    .......................................
    .......................................
    .......................................
    .......................................
    .......................................
    .......................................
    .......................................
    .......................................
    .......................................
    .......................................
    .......................................
    .......................................



# LATIN CAPITAL LETTER D
0x44:
u+0044:
    ............................................
    ............................................
    ............................................
    ............................................
    ............................................
    ............................................
    ............................................
    @@@@@@@@@@@@@@@@@@@@@@@@....................
    @@@@@@@@@@@@@@@@@@@@@@@@@@..................
    @@@@@@@@@@@@@@@@@@@@@@@@@@@@................
    @@@@@@@@@@@@@@@@@@@@@@@@@@@@@@..............
    ....@@@@@@@@@.......@@@@@@@@@@@.............
    ....@@@@@@@@@.........@@@@@@@@@@............
    ....@@@@@@@@@...........@@@@@@@@@...........
    ....@@@@@@@@@............@@@@@@@@@..........
    ....@@@@@@@@@.............@@@@@@@@..........
    ....@@@@@@@@@..............@@@@@@@@.........
    ....@@@@@@@@@...............@@@@@@@@........
    ....@@@@@@@@@...............@@@@@@@@........
    ....@@@@@@@@@................@@@@@@@@.......
    ....@@@@@@@@@................@@@@@@@@.......
    ....@@@@@@@@@................@@@@@@@@@......
    ....@@@@@@@@@.................@@@@@@@@......
    ....@@@@@@@@@.................@@@@@@@@@.....
    ....@@@@@@@@@..................@@@@@@@@.....
    ....@@@@@@@@@..................@@@@@@@@.....
    ....@@@@@@@@@..................@@@@@@@@@....
    ....@@@@@@@@@...................@@@@@@@@....
    ....@@@@@@@@@...................@@@@@@@@....
    ....@@@@@@@@@...................@@@@@@@@@...
    ....@@@@@@@@@...................@@@@@@@@@...
    ....@@@@@@@@@...................@@@@@@@@@...
    ....@@@@@@@@@....................@@@@@@@@...
    ....@@@@@@@@@....................@@@@@@@@@..
    ....@@@@@@@@@....................@@@@@@@@@..
    ....@@@@@@@@@....................@@@@@@@@@..
    ....@@@@@@@@@....................@@@@@@@@@..
    ....@@@@@@@@@....................@@@@@@@@@..
    ....@@@@@@@@@.....................@@@@@@@@@.
    ....@@@@@@@@@.....................@@@@@@@@@.
    ....@@@@@@@@@.....................@@@@@@@@@.
    ....@@@@@@@@@.....................@@@@@@@@@.
    ....@@@@@@@@@.....................@@@@@@@@@.
    ....@@@@@@@@@.....................@@@@@@@@@.
    ....@@@@@@@@@.....................@@@@@@@@@.
    ....@@@@@@@@@.....................@@@@@@@@@.
    ....@@@@@@@@@.....................@@@@@@@@@.
    ....@@@@@@@@@.....................@@@@@@@@@.
    ....@@@@@@@@@.....................@@@@@@@@@.
    ....@@@@@@@@@.....................@@@@@@@@@.
    ....@@@@@@@@@.....................@@@@@@@@@.
    ....@@@@@@@@@.....................@@@@@@@@@.
    ....@@@@@@@@@.....................@@@@@@@@@.
    ....@@@@@@@@@.....................@@@@@@@@@.
    ....@@@@@@@@@.....................@@@@@@@@@.
    ....@@@@@@@@@.....................@@@@@@@@@.
    ....@@@@@@@@@.....................@@@@@@@@@.
    ....@@@@@@@@@.....................@@@@@@@@@.
    ....@@@@@@@@@.....................@@@@@@@@@.
    ....@@@@@@@@@.....................@@@@@@@@@.
    ....@@@@@@@@@.....................@@@@@@@@@.
    ....@@@@@@@@@.....................@@@@@@@@@.
    ....@@@@@@@@@.....................@@@@@@@@@.
    ....@@@@@@@@@.....................@@@@@@@@@.
    ....@@@@@@@@@.....................@@@@@@@@@.
    ....@@@@@@@@@.....................@@@@@@@@@.
    ....@@@@@@@@@.....................@@@@@@@@@.
    ....@@@@@@@@@....................@@@@@@@@@..
    ....@@@@@@@@@....................@@@@@@@@@..
    ....@@@@@@@@@....................@@@@@@@@@..
    ....@@@@@@@@@....................@@@@@@@@@..
    ....@@@@@@@@@....................@@@@@@@@@..
    ....@@@@@@@@@....................@@@@@@@@...
    ....@@@@@@@@@...................@@@@@@@@@...
    ....@@@@@@@@@...................@@@@@@@@@...
    ....@@@@@@@@@...................@@@@@@@@@...
    ....@@@@@@@@@...................@@@@@@@@....
    ....@@@@@@@@@...................@@@@@@@@....
    ....@@@@@@@@@..................@@@@@@@@@....
    ....@@@@@@@@@..................@@@@@@@@.....
    ....@@@@@@@@@..................@@@@@@@@.....
    ....@@@@@@@@@.................@@@@@@@@@.....
    ....@@@@@@@@@.................@@@@@@@@......
    ....@@@@@@@@@................@@@@@@@@@......
    ....@@@@@@@@@................@@@@@@@@.......
    ....@@@@@@@@@................@@@@@@@@.......
    ....@@@@@@@@@...............@@@@@@@@........
    ....@@@@@@@@@...............@@@@@@@@........
    ....@@@@@@@@@..............@@@@@@@@.........
    ....@@@@@@@@@.............@@@@@@@@..........
    ....@@@@@@@@@............@@@@@@@@@..........
    ....@@@@@@@@@...........@@@@@@@@@...........
    ....@@@@@@@@@.........@@@@@@@@@@............
    ....@@@@@@@@@.......@@@@@@@@@@@.............
    @@@@@@@@@@@@@@@@@@@@@@@@@@@@@@..............
    @@@@@@@@@@@@@@@@@@@@@@@@@@@@................
    @@@@@@@@@@@@@@@@@@@@@@@@@@..................
    @@@@@@@@@@@@@@@@@@@@@@@@....................
    ............................................
    ............................................
    ............................................
    ............................................
    ............................................
    ............................................
    ............................................
    ............................................
    ............................................
    ............................................
    ............................................
    ............................................
    ............................................
    ............................................
    ............................................
    ............................................
    ............................................
    ............................................
    ............................................
    ............................................
    ............................................
    ............................................
    ............................................
    ............................................
    ............................................
    ............................................
    ............................................
    ............................................
    ............................................
    ............................................



# LATIN CAPITAL LETTER E
0x45:
u+0045:
    ...........................................
    ...........................................
    ...........................................
    ...........................................
    ...........................................
    ...........................................
    ...........................................
    @@@@@@@@@@@@@@@@@@@@@@@@@@@@@@@@@@@@@@@@@@.
    @@@@@@@@@@@@@@@@@@@@@@@@@@@@@@@@@@@@@@@@@@.
    @@@@@@@@@@@@@@@@@@@@@@@@@@@@@@@@@@@@@@@@@@.
    @@@@@@@@@@@@@@@@@@@@@@@@@@@@@@@@@@@@@@@@@@.
    ....@@@@@@@@@....................@@@@@@@@@.
    ....@@@@@@@@@......................@@@@@@@.
    ....@@@@@@@@@......................@@@@@@@.
    ....@@@@@@@@@.......................@@@@@@.
    ....@@@@@@@@@........................@@@@@.
    ....@@@@@@@@@........................@@@@@.
    ....@@@@@@@@@........................@@@@@.
    ....@@@@@@@@@.........................@@@@.
    ....@@@@@@@@@.........................@@@@.
    ....@@@@@@@@@.........................@@@@.
    ....@@@@@@@@@.........................@@@@.
    ....@@@@@@@@@.........................@@@@.
    ....@@@@@@@@@.........................@@@@.
    ....@@@@@@@@@.........................@@@@.
    ....@@@@@@@@@..............................
    ....@@@@@@@@@..............................
    ....@@@@@@@@@..............................
    ....@@@@@@@@@..............................
    ....@@@@@@@@@..............................
    ....@@@@@@@@@..............................
    ....@@@@@@@@@..............................
    ....@@@@@@@@@..............................
    ....@@@@@@@@@..............................
    ....@@@@@@@@@..............................
    ....@@@@@@@@@..............................
    ....@@@@@@@@@..............................
    ....@@@@@@@@@..............@@@@............
    ....@@@@@@@@@..............@@@@............
    ....@@@@@@@@@..............@@@@............
    ....@@@@@@@@@..............@@@@............
    ....@@@@@@@@@.............@@@@@............
    ....@@@@@@@@@.............@@@@@............
    ....@@@@@@@@@............@@@@@@............
    ....@@@@@@@@@@@@@@@@@@@@@@@@@@@............
    ....@@@@@@@@@@@@@@@@@@@@@@@@@@@............
    ....@@@@@@@@@@@@@@@@@@@@@@@@@@@............
    ....@@@@@@@@@@@@@@@@@@@@@@@@@@@............
    ....@@@@@@@@@............@@@@@@............
    ....@@@@@@@@@.............@@@@@............
    ....@@@@@@@@@.............@@@@@............
    ....@@@@@@@@@..............@@@@............
    ....@@@@@@@@@..............@@@@............
    ....@@@@@@@@@..............@@@@............
    ....@@@@@@@@@..............@@@@............
    ....@@@@@@@@@..............................
    ....@@@@@@@@@..............................
    ....@@@@@@@@@..............................
    ....@@@@@@@@@..............................
    ....@@@@@@@@@..............................
    ....@@@@@@@@@..............................
    ....@@@@@@@@@..............................
    ....@@@@@@@@@..............................
    ....@@@@@@@@@..............................
    ....@@@@@@@@@..............................
    ....@@@@@@@@@..............................
    ....@@@@@@@@@..............................
    ....@@@@@@@@@..............................
    ....@@@@@@@@@..............................
    ....@@@@@@@@@..............................
    ....@@@@@@@@@..............................
    ....@@@@@@@@@..............................
    ....@@@@@@@@@..............................
    ....@@@@@@@@@..............................
    ....@@@@@@@@@..............................
    ....@@@@@@@@@..............................
    ....@@@@@@@@@..............................
    ....@@@@@@@@@..............................
    ....@@@@@@@@@..............................
    ....@@@@@@@@@..............................
    ....@@@@@@@@@.........................@@@@.
    ....@@@@@@@@@.........................@@@@.
    ....@@@@@@@@@.........................@@@@.
    ....@@@@@@@@@.........................@@@@.
    ....@@@@@@@@@.........................@@@@.
    ....@@@@@@@@@.........................@@@@.
    ....@@@@@@@@@.........................@@@@.
    ....@@@@@@@@@........................@@@@@.
    ....@@@@@@@@@........................@@@@@.
    ....@@@@@@@@@........................@@@@@.
    ....@@@@@@@@@.......................@@@@@@.
    ....@@@@@@@@@......................@@@@@@@.
    ....@@@@@@@@@......................@@@@@@@.
    ....@@@@@@@@@....................@@@@@@@@@.
    @@@@@@@@@@@@@@@@@@@@@@@@@@@@@@@@@@@@@@@@@@.
    @@@@@@@@@@@@@@@@@@@@@@@@@@@@@@@@@@@@@@@@@@.
    @@@@@@@@@@@@@@@@@@@@@@@@@@@@@@@@@@@@@@@@@@.
    @@@@@@@@@@@@@@@@@@@@@@@@@@@@@@@@@@@@@@@@@@.
    ...........................................
    ...........................................
    ...........................................
    ...........................................
    ...........................................
    ...........................................
    ...........................................
    ...........................................
    ...........................................
    ...........................................
    ...........................................
    ...........................................
    ...........................................
    ...........................................
    ...........................................
    ...........................................
    ...........................................
    ...........................................
    ...........................................
    ...........................................
    ...........................................
    ...........................................
    ...........................................
    ...........................................
    ...........................................
    ...........................................
    ...........................................
    ...........................................
    ...........................................
    ...........................................



# LATIN CAPITAL LETTER F
0x46:
u+0046:
    ...........................................
    ...........................................
    ...........................................
    ...........................................
    ...........................................
    ...........................................
    ...........................................
    @@@@@@@@@@@@@@@@@@@@@@@@@@@@@@@@@@@@@@@@@@.
    @@@@@@@@@@@@@@@@@@@@@@@@@@@@@@@@@@@@@@@@@@.
    @@@@@@@@@@@@@@@@@@@@@@@@@@@@@@@@@@@@@@@@@@.
    @@@@@@@@@@@@@@@@@@@@@@@@@@@@@@@@@@@@@@@@@@.
    ....@@@@@@@@@....................@@@@@@@@@.
    ....@@@@@@@@@......................@@@@@@@.
    ....@@@@@@@@@......................@@@@@@@.
    ....@@@@@@@@@.......................@@@@@@.
    ....@@@@@@@@@........................@@@@@.
    ....@@@@@@@@@........................@@@@@.
    ....@@@@@@@@@........................@@@@@.
    ....@@@@@@@@@.........................@@@@.
    ....@@@@@@@@@.........................@@@@.
    ....@@@@@@@@@.........................@@@@.
    ....@@@@@@@@@.........................@@@@.
    ....@@@@@@@@@.........................@@@@.
    ....@@@@@@@@@.........................@@@@.
    ....@@@@@@@@@.........................@@@@.
    ....@@@@@@@@@..............................
    ....@@@@@@@@@..............................
    ....@@@@@@@@@..............................
    ....@@@@@@@@@..............................
    ....@@@@@@@@@..............................
    ....@@@@@@@@@..............................
    ....@@@@@@@@@..............................
    ....@@@@@@@@@..............................
    ....@@@@@@@@@..............................
    ....@@@@@@@@@..............................
    ....@@@@@@@@@..............................
    ....@@@@@@@@@..............................
    ....@@@@@@@@@..............@@@@............
    ....@@@@@@@@@..............@@@@............
    ....@@@@@@@@@..............@@@@............
    ....@@@@@@@@@..............@@@@............
    ....@@@@@@@@@.............@@@@@............
    ....@@@@@@@@@.............@@@@@............
    ....@@@@@@@@@............@@@@@@............
    ....@@@@@@@@@@@@@@@@@@@@@@@@@@@............
    ....@@@@@@@@@@@@@@@@@@@@@@@@@@@............
    ....@@@@@@@@@@@@@@@@@@@@@@@@@@@............
    ....@@@@@@@@@@@@@@@@@@@@@@@@@@@............
    ....@@@@@@@@@............@@@@@@............
    ....@@@@@@@@@.............@@@@@............
    ....@@@@@@@@@.............@@@@@............
    ....@@@@@@@@@..............@@@@............
    ....@@@@@@@@@..............@@@@............
    ....@@@@@@@@@..............@@@@............
    ....@@@@@@@@@..............@@@@............
    ....@@@@@@@@@..............................
    ....@@@@@@@@@..............................
    ....@@@@@@@@@..............................
    ....@@@@@@@@@..............................
    ....@@@@@@@@@..............................
    ....@@@@@@@@@..............................
    ....@@@@@@@@@..............................
    ....@@@@@@@@@..............................
    ....@@@@@@@@@..............................
    ....@@@@@@@@@..............................
    ....@@@@@@@@@..............................
    ....@@@@@@@@@..............................
    ....@@@@@@@@@..............................
    ....@@@@@@@@@..............................
    ....@@@@@@@@@..............................
    ....@@@@@@@@@..............................
    ....@@@@@@@@@..............................
    ....@@@@@@@@@..............................
    ....@@@@@@@@@..............................
    ....@@@@@@@@@..............................
    ....@@@@@@@@@..............................
    ....@@@@@@@@@..............................
    ....@@@@@@@@@..............................
    ....@@@@@@@@@..............................
    ....@@@@@@@@@..............................
    ....@@@@@@@@@..............................
    ....@@@@@@@@@..............................
    ....@@@@@@@@@..............................
    ....@@@@@@@@@..............................
    ....@@@@@@@@@..............................
    ....@@@@@@@@@..............................
    ....@@@@@@@@@..............................
    ....@@@@@@@@@..............................
    ....@@@@@@@@@..............................
    ....@@@@@@@@@..............................
    ....@@@@@@@@@..............................
    ....@@@@@@@@@..............................
    ....@@@@@@@@@..............................
    ....@@@@@@@@@..............................
    @@@@@@@@@@@@@@@@@..........................
    @@@@@@@@@@@@@@@@@..........................
    @@@@@@@@@@@@@@@@@..........................
    @@@@@@@@@@@@@@@@@..........................
    ...........................................
    ...........................................
    ...........................................
    ...........................................
    ...........................................
    ...........................................
    ...........................................
    ...........................................
    ...........................................
    ...........................................
    ...........................................
    ...........................................
    ...........................................
    ...........................................
    ...........................................
    ...........................................
    ...........................................
    ...........................................
    ...........................................
    ...........................................
    ...........................................
    ...........................................
    ...........................................
    ...........................................
    ...........................................
    ...........................................
    ...........................................
    ...........................................
    ...........................................
    ...........................................



# LATIN CAPITAL LETTER G
0x47:
u+0047:
    ..........................................
    ..........................................
    ..........................................
    ..........................................
    ..........................................
    ..........................................
    ..........................................
    ..................@@@@@@@@.......@@@@.....
    ................@@@@@@@@@@@@.....@@@@.....
    ..............@@@@@@@@@@@@@@@....@@@@.....
    .............@@@@@@@@@@@@@@@@@...@@@@.....
    ............@@@@@@@@.....@@@@@@..@@@@.....
    ...........@@@@@@@.........@@@@@.@@@@.....
    ..........@@@@@@@...........@@@@@@@@@.....
    ..........@@@@@@.............@@@@@@@@.....
    .........@@@@@@..............@@@@@@@@.....
    ........@@@@@@@...............@@@@@@@.....
    ........@@@@@@................@@@@@@@.....
    .......@@@@@@@.................@@@@@@.....
    .......@@@@@@@.................@@@@@@.....
    ......@@@@@@@..................@@@@@@.....
    ......@@@@@@@...................@@@@@.....
    .....@@@@@@@....................@@@@@.....
    .....@@@@@@@....................@@@@@.....
    ....@@@@@@@@....................@@@@@.....
    ....@@@@@@@@..............................
    ....@@@@@@@...............................
    ...@@@@@@@@...............................
    ...@@@@@@@@...............................
    ...@@@@@@@@...............................
    ..@@@@@@@@@...............................
    ..@@@@@@@@................................
    ..@@@@@@@@................................
    ..@@@@@@@@................................
    .@@@@@@@@@................................
    .@@@@@@@@@................................
    .@@@@@@@@.................................
    .@@@@@@@@.................................
    .@@@@@@@@.................................
    .@@@@@@@@.................................
    @@@@@@@@@.................................
    @@@@@@@@@.................................
    @@@@@@@@@.................................
    @@@@@@@@@.................................
    @@@@@@@@@.................................
    @@@@@@@@@.................................
    @@@@@@@@@.................................
    @@@@@@@@@.................................
    @@@@@@@@@.................................
    @@@@@@@@@................@@@@@@@@@@@@@@@@.
    @@@@@@@@@................@@@@@@@@@@@@@@@@.
    @@@@@@@@@................@@@@@@@@@@@@@@@@.
    @@@@@@@@@................@@@@@@@@@@@@@@@@.
    @@@@@@@@@.......................@@@@@@@@@.
    @@@@@@@@@.......................@@@@@@@@@.
    @@@@@@@@@.......................@@@@@@@@@.
    @@@@@@@@@.......................@@@@@@@@@.
    @@@@@@@@@.......................@@@@@@@@@.
    @@@@@@@@@.......................@@@@@@@@@.
    @@@@@@@@@.......................@@@@@@@@@.
    @@@@@@@@@.......................@@@@@@@@@.
    @@@@@@@@@.......................@@@@@@@@@.
    @@@@@@@@@.......................@@@@@@@@@.
    @@@@@@@@@.......................@@@@@@@@@.
    @@@@@@@@@.......................@@@@@@@@@.
    .@@@@@@@@@......................@@@@@@@@@.
    .@@@@@@@@@......................@@@@@@@@@.
    .@@@@@@@@@......................@@@@@@@@..
    .@@@@@@@@@......................@@@@@@@@..
    .@@@@@@@@@......................@@@@@@@@..
    .@@@@@@@@@......................@@@@@@@@..
    ..@@@@@@@@@.....................@@@@@@@@..
    ..@@@@@@@@@.....................@@@@@@@@..
    ..@@@@@@@@@.....................@@@@@@@@..
    ..@@@@@@@@@.....................@@@@@@@@..
    ...@@@@@@@@@....................@@@@@@@@..
    ...@@@@@@@@@....................@@@@@@@...
    ...@@@@@@@@@....................@@@@@@@...
    ....@@@@@@@@@...................@@@@@@@...
    ....@@@@@@@@@..................@@@@@@@@...
    ....@@@@@@@@@..................@@@@@@@....
    .....@@@@@@@@@.................@@@@@@@....
    .....@@@@@@@@@.................@@@@@@@....
    ......@@@@@@@@.................@@@@@@@....
    ......@@@@@@@@@...............@@@@@@@.....
    .......@@@@@@@@...............@@@@@@@.....
    .......@@@@@@@@@..............@@@@@@@.....
    ........@@@@@@@@@............@@@@@@@......
    ........@@@@@@@@@............@@@@@@@......
    .........@@@@@@@@@..........@@@@@@@.......
    ..........@@@@@@@@@.........@@@@@@........
    ..........@@@@@@@@@@.......@@@@@@@........
    ...........@@@@@@@@@@@....@@@@@@@.........
    ............@@@@@@@@@@@@@@@@@@@@..........
    .............@@@@@@@@@@@@@@@@@@...........
    ..............@@@@@@@@@@@@@@@@............
    ................@@@@@@@@@@@@..............
    ..................@@@@@@@@................
    ..........................................
    ..........................................
    ..........................................
    ..........................................
    ..........................................
    ..........................................
    ..........................................
    ..........................................
    ..........................................
    ..........................................
    ..........................................
    ..........................................
    ..........................................
    ..........................................
    ..........................................
    ..........................................
    ..........................................
    ..........................................
    ..........................................
    ..........................................
    ..........................................
    ..........................................
    ..........................................
    ..........................................
    ..........................................
    ..........................................
    ..........................................
    ..........................................
    ..........................................
    ..........................................



# LATIN CAPITAL LETTER H
0x48:
u+0048:
    ...............................................
    ...............................................
    ...............................................
    ...............................................
    ...............................................
    ...............................................
    ...............................................
    @@@@@@@@@@@@@@@@@............@@@@@@@@@@@@@@@@@.
    @@@@@@@@@@@@@@@@@............@@@@@@@@@@@@@@@@@.
    @@@@@@@@@@@@@@@@@............@@@@@@@@@@@@@@@@@.
    @@@@@@@@@@@@@@@@@............@@@@@@@@@@@@@@@@@.
    ....@@@@@@@@@....................@@@@@@@@@.....
    ....@@@@@@@@@....................@@@@@@@@@.....
    ....@@@@@@@@@....................@@@@@@@@@.....
    ....@@@@@@@@@....................@@@@@@@@@.....
    ....@@@@@@@@@....................@@@@@@@@@.....
    ....@@@@@@@@@....................@@@@@@@@@.....
    ....@@@@@@@@@....................@@@@@@@@@.....
    ....@@@@@@@@@....................@@@@@@@@@.....
    ....@@@@@@@@@....................@@@@@@@@@.....
    ....@@@@@@@@@....................@@@@@@@@@.....
    ....@@@@@@@@@....................@@@@@@@@@.....
    ....@@@@@@@@@....................@@@@@@@@@.....
    ....@@@@@@@@@....................@@@@@@@@@.....
    ....@@@@@@@@@....................@@@@@@@@@.....
    ....@@@@@@@@@....................@@@@@@@@@.....
    ....@@@@@@@@@....................@@@@@@@@@.....
    ....@@@@@@@@@....................@@@@@@@@@.....
    ....@@@@@@@@@....................@@@@@@@@@.....
    ....@@@@@@@@@....................@@@@@@@@@.....
    ....@@@@@@@@@....................@@@@@@@@@.....
    ....@@@@@@@@@....................@@@@@@@@@.....
    ....@@@@@@@@@....................@@@@@@@@@.....
    ....@@@@@@@@@....................@@@@@@@@@.....
    ....@@@@@@@@@....................@@@@@@@@@.....
    ....@@@@@@@@@....................@@@@@@@@@.....
    ....@@@@@@@@@....................@@@@@@@@@.....
    ....@@@@@@@@@....................@@@@@@@@@.....
    ....@@@@@@@@@....................@@@@@@@@@.....
    ....@@@@@@@@@....................@@@@@@@@@.....
    ....@@@@@@@@@....................@@@@@@@@@.....
    ....@@@@@@@@@....................@@@@@@@@@.....
    ....@@@@@@@@@....................@@@@@@@@@.....
    ....@@@@@@@@@....................@@@@@@@@@.....
    ....@@@@@@@@@@@@@@@@@@@@@@@@@@@@@@@@@@@@@@.....
    ....@@@@@@@@@@@@@@@@@@@@@@@@@@@@@@@@@@@@@@.....
    ....@@@@@@@@@@@@@@@@@@@@@@@@@@@@@@@@@@@@@@.....
    ....@@@@@@@@@@@@@@@@@@@@@@@@@@@@@@@@@@@@@@.....
    ....@@@@@@@@@....................@@@@@@@@@.....
    ....@@@@@@@@@....................@@@@@@@@@.....
    ....@@@@@@@@@....................@@@@@@@@@.....
    ....@@@@@@@@@....................@@@@@@@@@.....
    ....@@@@@@@@@....................@@@@@@@@@.....
    ....@@@@@@@@@....................@@@@@@@@@.....
    ....@@@@@@@@@....................@@@@@@@@@.....
    ....@@@@@@@@@....................@@@@@@@@@.....
    ....@@@@@@@@@....................@@@@@@@@@.....
    ....@@@@@@@@@....................@@@@@@@@@.....
    ....@@@@@@@@@....................@@@@@@@@@.....
    ....@@@@@@@@@....................@@@@@@@@@.....
    ....@@@@@@@@@....................@@@@@@@@@.....
    ....@@@@@@@@@....................@@@@@@@@@.....
    ....@@@@@@@@@....................@@@@@@@@@.....
    ....@@@@@@@@@....................@@@@@@@@@.....
    ....@@@@@@@@@....................@@@@@@@@@.....
    ....@@@@@@@@@....................@@@@@@@@@.....
    ....@@@@@@@@@....................@@@@@@@@@.....
    ....@@@@@@@@@....................@@@@@@@@@.....
    ....@@@@@@@@@....................@@@@@@@@@.....
    ....@@@@@@@@@....................@@@@@@@@@.....
    ....@@@@@@@@@....................@@@@@@@@@.....
    ....@@@@@@@@@....................@@@@@@@@@.....
    ....@@@@@@@@@....................@@@@@@@@@.....
    ....@@@@@@@@@....................@@@@@@@@@.....
    ....@@@@@@@@@....................@@@@@@@@@.....
    ....@@@@@@@@@....................@@@@@@@@@.....
    ....@@@@@@@@@....................@@@@@@@@@.....
    ....@@@@@@@@@....................@@@@@@@@@.....
    ....@@@@@@@@@....................@@@@@@@@@.....
    ....@@@@@@@@@....................@@@@@@@@@.....
    ....@@@@@@@@@....................@@@@@@@@@.....
    ....@@@@@@@@@....................@@@@@@@@@.....
    ....@@@@@@@@@....................@@@@@@@@@.....
    ....@@@@@@@@@....................@@@@@@@@@.....
    ....@@@@@@@@@....................@@@@@@@@@.....
    ....@@@@@@@@@....................@@@@@@@@@.....
    ....@@@@@@@@@....................@@@@@@@@@.....
    ....@@@@@@@@@....................@@@@@@@@@.....
    ....@@@@@@@@@....................@@@@@@@@@.....
    ....@@@@@@@@@....................@@@@@@@@@.....
    ....@@@@@@@@@....................@@@@@@@@@.....
    ....@@@@@@@@@....................@@@@@@@@@.....
    ....@@@@@@@@@....................@@@@@@@@@.....
    ....@@@@@@@@@....................@@@@@@@@@.....
    @@@@@@@@@@@@@@@@@............@@@@@@@@@@@@@@@@@.
    @@@@@@@@@@@@@@@@@............@@@@@@@@@@@@@@@@@.
    @@@@@@@@@@@@@@@@@............@@@@@@@@@@@@@@@@@.
    @@@@@@@@@@@@@@@@@............@@@@@@@@@@@@@@@@@.
    ...............................................
    ...............................................
    ...............................................
    ...............................................
    ...............................................
    ...............................................
    ...............................................
    ...............................................
    ...............................................
    ...............................................
    ...............................................
    ...............................................
    ...............................................
    ...............................................
    ...............................................
    ...............................................
    ...............................................
    ...............................................
    ...............................................
    ...............................................
    ...............................................
    ...............................................
    ...............................................
    ...............................................
    ...............................................
    ...............................................
    ...............................................
    ...............................................
    ...............................................
    ...............................................



# LATIN CAPITAL LETTER I
0x49:
u+0049:
    ..................
    ..................
    ..................
    ..................
    ..................
    ..................
    ..................
    @@@@@@@@@@@@@@@@@.
    @@@@@@@@@@@@@@@@@.
    @@@@@@@@@@@@@@@@@.
    @@@@@@@@@@@@@@@@@.
    ....@@@@@@@@@.....
    ....@@@@@@@@@.....
    ....@@@@@@@@@.....
    ....@@@@@@@@@.....
    ....@@@@@@@@@.....
    ....@@@@@@@@@.....
    ....@@@@@@@@@.....
    ....@@@@@@@@@.....
    ....@@@@@@@@@.....
    ....@@@@@@@@@.....
    ....@@@@@@@@@.....
    ....@@@@@@@@@.....
    ....@@@@@@@@@.....
    ....@@@@@@@@@.....
    ....@@@@@@@@@.....
    ....@@@@@@@@@.....
    ....@@@@@@@@@.....
    ....@@@@@@@@@.....
    ....@@@@@@@@@.....
    ....@@@@@@@@@.....
    ....@@@@@@@@@.....
    ....@@@@@@@@@.....
    ....@@@@@@@@@.....
    ....@@@@@@@@@.....
    ....@@@@@@@@@.....
    ....@@@@@@@@@.....
    ....@@@@@@@@@.....
    ....@@@@@@@@@.....
    ....@@@@@@@@@.....
    ....@@@@@@@@@.....
    ....@@@@@@@@@.....
    ....@@@@@@@@@.....
    ....@@@@@@@@@.....
    ....@@@@@@@@@.....
    ....@@@@@@@@@.....
    ....@@@@@@@@@.....
    ....@@@@@@@@@.....
    ....@@@@@@@@@.....
    ....@@@@@@@@@.....
    ....@@@@@@@@@.....
    ....@@@@@@@@@.....
    ....@@@@@@@@@.....
    ....@@@@@@@@@.....
    ....@@@@@@@@@.....
    ....@@@@@@@@@.....
    ....@@@@@@@@@.....
    ....@@@@@@@@@.....
    ....@@@@@@@@@.....
    ....@@@@@@@@@.....
    ....@@@@@@@@@.....
    ....@@@@@@@@@.....
    ....@@@@@@@@@.....
    ....@@@@@@@@@.....
    ....@@@@@@@@@.....
    ....@@@@@@@@@.....
    ....@@@@@@@@@.....
    ....@@@@@@@@@.....
    ....@@@@@@@@@.....
    ....@@@@@@@@@.....
    ....@@@@@@@@@.....
    ....@@@@@@@@@.....
    ....@@@@@@@@@.....
    ....@@@@@@@@@.....
    ....@@@@@@@@@.....
    ....@@@@@@@@@.....
    ....@@@@@@@@@.....
    ....@@@@@@@@@.....
    ....@@@@@@@@@.....
    ....@@@@@@@@@.....
    ....@@@@@@@@@.....
    ....@@@@@@@@@.....
    ....@@@@@@@@@.....
    ....@@@@@@@@@.....
    ....@@@@@@@@@.....
    ....@@@@@@@@@.....
    ....@@@@@@@@@.....
    ....@@@@@@@@@.....
    ....@@@@@@@@@.....
    ....@@@@@@@@@.....
    ....@@@@@@@@@.....
    ....@@@@@@@@@.....
    ....@@@@@@@@@.....
    ....@@@@@@@@@.....
    @@@@@@@@@@@@@@@@@.
    @@@@@@@@@@@@@@@@@.
    @@@@@@@@@@@@@@@@@.
    @@@@@@@@@@@@@@@@@.
    ..................
    ..................
    ..................
    ..................
    ..................
    ..................
    ..................
    ..................
    ..................
    ..................
    ..................
    ..................
    ..................
    ..................
    ..................
    ..................
    ..................
    ..................
    ..................
    ..................
    ..................
    ..................
    ..................
    ..................
    ..................
    ..................
    ..................
    ..................
    ..................
    ..................



# LATIN CAPITAL LETTER J
0x4a:
u+004a:
    ....................................
    ....................................
    ....................................
    ....................................
    ....................................
    ....................................
    ....................................
    ..................@@@@@@@@@@@@@@@@@.
    ..................@@@@@@@@@@@@@@@@@.
    ..................@@@@@@@@@@@@@@@@@.
    ..................@@@@@@@@@@@@@@@@@.
    ......................@@@@@@@@@.....
    ......................@@@@@@@@@.....
    ......................@@@@@@@@@.....
    ......................@@@@@@@@@.....
    ......................@@@@@@@@@.....
    ......................@@@@@@@@@.....
    ......................@@@@@@@@@.....
    ......................@@@@@@@@@.....
    ......................@@@@@@@@@.....
    ......................@@@@@@@@@.....
    ......................@@@@@@@@@.....
    ......................@@@@@@@@@.....
    ......................@@@@@@@@@.....
    ......................@@@@@@@@@.....
    ......................@@@@@@@@@.....
    ......................@@@@@@@@@.....
    ......................@@@@@@@@@.....
    ......................@@@@@@@@@.....
    ......................@@@@@@@@@.....
    ......................@@@@@@@@@.....
    ......................@@@@@@@@@.....
    ......................@@@@@@@@@.....
    ......................@@@@@@@@@.....
    ......................@@@@@@@@@.....
    ......................@@@@@@@@@.....
    ......................@@@@@@@@@.....
    ......................@@@@@@@@@.....
    ......................@@@@@@@@@.....
    ......................@@@@@@@@@.....
    ......................@@@@@@@@@.....
    ......................@@@@@@@@@.....
    ......................@@@@@@@@@.....
    ......................@@@@@@@@@.....
    ......................@@@@@@@@@.....
    ......................@@@@@@@@@.....
    ......................@@@@@@@@@.....
    ......................@@@@@@@@@.....
    ......................@@@@@@@@@.....
    ......................@@@@@@@@@.....
    ......................@@@@@@@@@.....
    ......................@@@@@@@@@.....
    ......................@@@@@@@@@.....
    ......................@@@@@@@@@.....
    ......................@@@@@@@@@.....
    ......................@@@@@@@@@.....
    ......................@@@@@@@@@.....
    ......................@@@@@@@@@.....
    ......................@@@@@@@@@.....
    ......................@@@@@@@@@.....
    ......................@@@@@@@@@.....
    ......................@@@@@@@@@.....
    ......................@@@@@@@@@.....
    ......................@@@@@@@@@.....
    ......................@@@@@@@@@.....
    ......................@@@@@@@@@.....
    ......................@@@@@@@@@.....
    ......................@@@@@@@@@.....
    ......................@@@@@@@@@.....
    ......................@@@@@@@@@.....
    ......................@@@@@@@@@.....
    ......................@@@@@@@@@.....
    ....@@@...............@@@@@@@@@.....
    ...@@@@@..............@@@@@@@@@.....
    ..@@@@@@@.............@@@@@@@@@.....
    .@@@@@@@@@............@@@@@@@@@.....
    .@@@@@@@@@............@@@@@@@@@.....
    @@@@@@@@@@@...........@@@@@@@@@.....
    @@@@@@@@@@@...........@@@@@@@@......
    @@@@@@@@@@@...........@@@@@@@@......
    @@@@@@@@@@@...........@@@@@@@@......
    @@@@@@@@@@@...........@@@@@@@@......
    @@@@@@@@@@@...........@@@@@@@@......
    @@@@@@@@@@@...........@@@@@@@.......
    .@@@@@@@@@...........@@@@@@@@.......
    .@@@@@@@@@...........@@@@@@@@.......
    .@@@@@@@@............@@@@@@@........
    .@@@@@@@............@@@@@@@@........
    ..@@@@@@............@@@@@@@.........
    ..@@@@@@...........@@@@@@@@.........
    ..@@@@@@...........@@@@@@@..........
    ...@@@@@@.........@@@@@@@...........
    ...@@@@@@@.......@@@@@@@............
    ....@@@@@@@....@@@@@@@@.............
    .....@@@@@@@@@@@@@@@@@..............
    ......@@@@@@@@@@@@@@@...............
    ........@@@@@@@@@@@@................
    ..........@@@@@@@...................
    ....................................
    ....................................
    ....................................
    ....................................
    ....................................
    ....................................
    ....................................
    ....................................
    ....................................
    ....................................
    ....................................
    ....................................
    ....................................
    ....................................
    ....................................
    ....................................
    ....................................
    ....................................
    ....................................
    ....................................
    ....................................
    ....................................
    ....................................
    ....................................
    ....................................
    ....................................
    ....................................
    ....................................
    ....................................
    ....................................



# LATIN CAPITAL LETTER K
0x4b:
u+004b:
    ............................................
    ............................................
    ............................................
    ............................................
    ............................................
    ............................................
    ............................................
    @@@@@@@@@@@@@@@@@...........@@@@@@@@@@@@@...
    @@@@@@@@@@@@@@@@@...........@@@@@@@@@@@@@...
    @@@@@@@@@@@@@@@@@...........@@@@@@@@@@@@@...
    @@@@@@@@@@@@@@@@@...........@@@@@@@@@@@@@...
    ....@@@@@@@@@...................@@@@@.......
    ....@@@@@@@@@...................@@@@........
    ....@@@@@@@@@..................@@@@.........
    ....@@@@@@@@@..................@@@@.........
    ....@@@@@@@@@.................@@@@..........
    ....@@@@@@@@@.................@@@@..........
    ....@@@@@@@@@................@@@@...........
    ....@@@@@@@@@...............@@@@............
    ....@@@@@@@@@...............@@@@............
    ....@@@@@@@@@..............@@@@.............
    ....@@@@@@@@@..............@@@@.............
    ....@@@@@@@@@.............@@@@..............
    ....@@@@@@@@@............@@@@...............
    ....@@@@@@@@@............@@@@...............
    ....@@@@@@@@@...........@@@@................
    ....@@@@@@@@@...........@@@@................
    ....@@@@@@@@@..........@@@@.................
    ....@@@@@@@@@.........@@@@..................
    ....@@@@@@@@@.........@@@@..................
    ....@@@@@@@@@........@@@@...................
    ....@@@@@@@@@........@@@@...................
    ....@@@@@@@@@.......@@@@....................
    ....@@@@@@@@@.......@@@.....................
    ....@@@@@@@@@......@@@@.....................
    ....@@@@@@@@@.....@@@@......................
    ....@@@@@@@@@.....@@@@......................
    ....@@@@@@@@@....@@@@.......................
    ....@@@@@@@@@...@@@@@.......................
    ....@@@@@@@@@...@@@@........................
    ....@@@@@@@@@..@@@@@........................
    ....@@@@@@@@@..@@@@@........................
    ....@@@@@@@@@.@@@@@@........................
    ....@@@@@@@@@.@@@@@@@.......................
    ....@@@@@@@@@@@@@@@@@.......................
    ....@@@@@@@@@@@@@@@@@.......................
    ....@@@@@@@@@@@@@@@@@@......................
    ....@@@@@@@@@@@@@@@@@@......................
    ....@@@@@@@@@@@@@@@@@@......................
    ....@@@@@@@@@@@@@@@@@@@.....................
    ....@@@@@@@@@@@@@@@@@@@.....................
    ....@@@@@@@@@@@@@@@@@@@.....................
    ....@@@@@@@@@.@@@@@@@@@@....................
    ....@@@@@@@@@.@@@@@@@@@@....................
    ....@@@@@@@@@.@@@@@@@@@@@...................
    ....@@@@@@@@@..@@@@@@@@@@...................
    ....@@@@@@@@@..@@@@@@@@@@...................
    ....@@@@@@@@@..@@@@@@@@@@@..................
    ....@@@@@@@@@...@@@@@@@@@@..................
    ....@@@@@@@@@...@@@@@@@@@@@.................
    ....@@@@@@@@@...@@@@@@@@@@@.................
    ....@@@@@@@@@....@@@@@@@@@@.................
    ....@@@@@@@@@....@@@@@@@@@@@................
    ....@@@@@@@@@.....@@@@@@@@@@................
    ....@@@@@@@@@.....@@@@@@@@@@................
    ....@@@@@@@@@.....@@@@@@@@@@@...............
    ....@@@@@@@@@......@@@@@@@@@@...............
    ....@@@@@@@@@......@@@@@@@@@@...............
    ....@@@@@@@@@......@@@@@@@@@@@..............
    ....@@@@@@@@@.......@@@@@@@@@@..............
    ....@@@@@@@@@.......@@@@@@@@@@..............
    ....@@@@@@@@@.......@@@@@@@@@@@.............
    ....@@@@@@@@@........@@@@@@@@@@.............
    ....@@@@@@@@@........@@@@@@@@@@@............
    ....@@@@@@@@@........@@@@@@@@@@@............
    ....@@@@@@@@@.........@@@@@@@@@@............
    ....@@@@@@@@@.........@@@@@@@@@@@...........
    ....@@@@@@@@@.........@@@@@@@@@@@...........
    ....@@@@@@@@@..........@@@@@@@@@@...........
    ....@@@@@@@@@..........@@@@@@@@@@@..........
    ....@@@@@@@@@..........@@@@@@@@@@@..........
    ....@@@@@@@@@...........@@@@@@@@@@..........
    ....@@@@@@@@@...........@@@@@@@@@@@.........
    ....@@@@@@@@@............@@@@@@@@@@.........
    ....@@@@@@@@@............@@@@@@@@@@.........
    ....@@@@@@@@@............@@@@@@@@@@@........
    ....@@@@@@@@@.............@@@@@@@@@@........
    ....@@@@@@@@@.............@@@@@@@@@@@.......
    ....@@@@@@@@@.............@@@@@@@@@@@.......
    ....@@@@@@@@@..............@@@@@@@@@@.......
    ....@@@@@@@@@..............@@@@@@@@@@@......
    ....@@@@@@@@@..............@@@@@@@@@@@......
    ....@@@@@@@@@...............@@@@@@@@@@......
    ....@@@@@@@@@...............@@@@@@@@@@@.....
    @@@@@@@@@@@@@@@@@.......@@@@@@@@@@@@@@@@@@@.
    @@@@@@@@@@@@@@@@@.......@@@@@@@@@@@@@@@@@@@.
    @@@@@@@@@@@@@@@@@.......@@@@@@@@@@@@@@@@@@@.
    @@@@@@@@@@@@@@@@@.......@@@@@@@@@@@@@@@@@@@.
    ............................................
    ............................................
    ............................................
    ............................................
    ............................................
    ............................................
    ............................................
    ............................................
    ............................................
    ............................................
    ............................................
    ............................................
    ............................................
    ............................................
    ............................................
    ............................................
    ............................................
    ............................................
    ............................................
    ............................................
    ............................................
    ............................................
    ............................................
    ............................................
    ............................................
    ............................................
    ............................................
    ............................................
    ............................................
    ............................................



# LATIN CAPITAL LETTER L
0x4c:
u+004c:
    ...........................................
    ...........................................
    ...........................................
    ...........................................
    ...........................................
    ...........................................
    ...........................................
    @@@@@@@@@@@@@@@@@..........................
    @@@@@@@@@@@@@@@@@..........................
    @@@@@@@@@@@@@@@@@..........................
    @@@@@@@@@@@@@@@@@..........................
    ....@@@@@@@@@..............................
    ....@@@@@@@@@..............................
    ....@@@@@@@@@..............................
    ....@@@@@@@@@..............................
    ....@@@@@@@@@..............................
    ....@@@@@@@@@..............................
    ....@@@@@@@@@..............................
    ....@@@@@@@@@..............................
    ....@@@@@@@@@..............................
    ....@@@@@@@@@..............................
    ....@@@@@@@@@..............................
    ....@@@@@@@@@..............................
    ....@@@@@@@@@..............................
    ....@@@@@@@@@..............................
    ....@@@@@@@@@..............................
    ....@@@@@@@@@..............................
    ....@@@@@@@@@..............................
    ....@@@@@@@@@..............................
    ....@@@@@@@@@..............................
    ....@@@@@@@@@..............................
    ....@@@@@@@@@..............................
    ....@@@@@@@@@..............................
    ....@@@@@@@@@..............................
    ....@@@@@@@@@..............................
    ....@@@@@@@@@..............................
    ....@@@@@@@@@..............................
    ....@@@@@@@@@..............................
    ....@@@@@@@@@..............................
    ....@@@@@@@@@..............................
    ....@@@@@@@@@..............................
    ....@@@@@@@@@..............................
    ....@@@@@@@@@..............................
    ....@@@@@@@@@..............................
    ....@@@@@@@@@..............................
    ....@@@@@@@@@..............................
    ....@@@@@@@@@..............................
    ....@@@@@@@@@..............................
    ....@@@@@@@@@..............................
    ....@@@@@@@@@..............................
    ....@@@@@@@@@..............................
    ....@@@@@@@@@..............................
    ....@@@@@@@@@..............................
    ....@@@@@@@@@..............................
    ....@@@@@@@@@..............................
    ....@@@@@@@@@..............................
    ....@@@@@@@@@..............................
    ....@@@@@@@@@..............................
    ....@@@@@@@@@..............................
    ....@@@@@@@@@..............................
    ....@@@@@@@@@..............................
    ....@@@@@@@@@..............................
    ....@@@@@@@@@..............................
    ....@@@@@@@@@..............................
    ....@@@@@@@@@..............................
    ....@@@@@@@@@..............................
    ....@@@@@@@@@..............................
    ....@@@@@@@@@..............................
    ....@@@@@@@@@..............................
    ....@@@@@@@@@..............................
    ....@@@@@@@@@..............................
    ....@@@@@@@@@..............................
    ....@@@@@@@@@..............................
    ....@@@@@@@@@..............................
    ....@@@@@@@@@..............................
    ....@@@@@@@@@..............................
    ....@@@@@@@@@..............................
    ....@@@@@@@@@..............................
    ....@@@@@@@@@..............................
    ....@@@@@@@@@..............................
    ....@@@@@@@@@.........................@@@@.
    ....@@@@@@@@@.........................@@@@.
    ....@@@@@@@@@.........................@@@@.
    ....@@@@@@@@@.........................@@@@.
    ....@@@@@@@@@.........................@@@@.
    ....@@@@@@@@@.........................@@@@.
    ....@@@@@@@@@.........................@@@@.
    ....@@@@@@@@@........................@@@@@.
    ....@@@@@@@@@........................@@@@@.
    ....@@@@@@@@@........................@@@@@.
    ....@@@@@@@@@.......................@@@@@@.
    ....@@@@@@@@@......................@@@@@@@.
    ....@@@@@@@@@......................@@@@@@@.
    ....@@@@@@@@@....................@@@@@@@@@.
    @@@@@@@@@@@@@@@@@@@@@@@@@@@@@@@@@@@@@@@@@@.
    @@@@@@@@@@@@@@@@@@@@@@@@@@@@@@@@@@@@@@@@@@.
    @@@@@@@@@@@@@@@@@@@@@@@@@@@@@@@@@@@@@@@@@@.
    @@@@@@@@@@@@@@@@@@@@@@@@@@@@@@@@@@@@@@@@@@.
    ...........................................
    ...........................................
    ...........................................
    ...........................................
    ...........................................
    ...........................................
    ...........................................
    ...........................................
    ...........................................
    ...........................................
    ...........................................
    ...........................................
    ...........................................
    ...........................................
    ...........................................
    ...........................................
    ...........................................
    ...........................................
    ...........................................
    ...........................................
    ...........................................
    ...........................................
    ...........................................
    ...........................................
    ...........................................
    ...........................................
    ...........................................
    ...........................................
    ...........................................
    ...........................................



